<?xml version="1.0" encoding="UTF-8" standalone="no"?>
<svg
   xmlns:dc="http://purl.org/dc/elements/1.1/"
   xmlns:cc="http://creativecommons.org/ns#"
   xmlns:rdf="http://www.w3.org/1999/02/22-rdf-syntax-ns#"
   xmlns:svg="http://www.w3.org/2000/svg"
   xmlns="http://www.w3.org/2000/svg"
   viewBox="0 0 1440 810"
   height="810"
   width="1440"
   xml:space="preserve"
   version="1.1"
   id="svg2"><metadata
     id="metadata8"><rdf:RDF><cc:Work
         rdf:about=""><dc:format>image/svg+xml</dc:format><dc:type
           rdf:resource="http://purl.org/dc/dcmitype/StillImage" /><dc:title></dc:title></cc:Work></rdf:RDF></metadata><defs
     id="defs6"><clipPath
       id="clipPath20"
       clipPathUnits="userSpaceOnUse"><path
         id="path22"
         d="m 0,648 1153,0 0,-649 L 0,-1 0,648 Z" /></clipPath><clipPath
       id="clipPath30"
       clipPathUnits="userSpaceOnUse"><path
         id="path32"
         d="m 40.363,584.613 1098.234,0 0,-547.656 -1098.234,0 0,547.656 z" /></clipPath><clipPath
       id="clipPath390"
       clipPathUnits="userSpaceOnUse"><path
         id="path392"
         d="m 0,648 1153,0 0,-649 L 0,-1 0,648 Z" /></clipPath><clipPath
       id="clipPath410"
       clipPathUnits="userSpaceOnUse"><path
         id="path412"
         d="m 0,648 1153,0 0,-649 L 0,-1 0,648 Z" /></clipPath><clipPath
       id="clipPath428"
       clipPathUnits="userSpaceOnUse"><path
         id="path430"
         d="m 0,648 1153,0 0,-649 L 0,-1 0,648 Z" /></clipPath><clipPath
       id="clipPath444"
       clipPathUnits="userSpaceOnUse"><path
         id="path446"
         d="m 0,648 1153,0 0,-649 L 0,-1 0,648 Z" /></clipPath><clipPath
       id="clipPath456"
       clipPathUnits="userSpaceOnUse"><path
         id="path458"
         d="m 0,648 1153,0 0,-649 L 0,-1 0,648 Z" /></clipPath><clipPath
       id="clipPath468"
       clipPathUnits="userSpaceOnUse"><path
         id="path470"
         d="m 0,648 1153,0 0,-649 L 0,-1 0,648 Z" /></clipPath><clipPath
       id="clipPath500"
       clipPathUnits="userSpaceOnUse"><path
         id="path502"
         d="m 0,648 1153,0 0,-649 L 0,-1 0,648 Z" /></clipPath></defs><g
     transform="matrix(1.25,0,0,-1.25,0,810)"
     id="g10"><g
       id="g12"><path
         id="path14"
         style="fill:#ffffff;fill-opacity:1;fill-rule:nonzero;stroke:none"
         d="m 0,0 1152,0 0,648 L 0,648 0,0 Z" /></g><g
       id="g16"><g
         clip-path="url(#clipPath20)"
         id="g18"><path
           id="path24"
           style="fill:#ffffff;fill-opacity:1;fill-rule:nonzero;stroke:#ffffff;stroke-width:1.41732299;stroke-linecap:round;stroke-linejoin:round;stroke-miterlimit:10;stroke-dasharray:none;stroke-opacity:1"
           d="M 0,648 1152,648 1152,0 0,0 0,648 Z" /></g></g><g
       id="g26"><g
         clip-path="url(#clipPath30)"
         id="g28"><path
           id="path34"
           style="fill:#e5e5e5;fill-opacity:1;fill-rule:nonzero;stroke:none"
           d="m 40.363,584.613 1097.234,0 0,-546.656 -1097.234,0 0,546.656 z" /><path
           id="path36"
           style="fill:none;stroke:#f2f2f2;stroke-width:0.70866102;stroke-linecap:butt;stroke-linejoin:round;stroke-miterlimit:10;stroke-dasharray:none;stroke-opacity:1"
           d="m 40.363,115.789 1097.239,0" /><path
           id="path38"
           style="fill:none;stroke:#f2f2f2;stroke-width:0.70866102;stroke-linecap:butt;stroke-linejoin:round;stroke-miterlimit:10;stroke-dasharray:none;stroke-opacity:1"
           d="m 40.363,221.766 1097.239,0" /><path
           id="path40"
           style="fill:none;stroke:#f2f2f2;stroke-width:0.70866102;stroke-linecap:butt;stroke-linejoin:round;stroke-miterlimit:10;stroke-dasharray:none;stroke-opacity:1"
           d="m 40.363,327.738 1097.239,0" /><path
           id="path42"
           style="fill:none;stroke:#f2f2f2;stroke-width:0.70866102;stroke-linecap:butt;stroke-linejoin:round;stroke-miterlimit:10;stroke-dasharray:none;stroke-opacity:1"
           d="m 40.363,433.715 1097.239,0" /><path
           id="path44"
           style="fill:none;stroke:#f2f2f2;stroke-width:0.70866102;stroke-linecap:butt;stroke-linejoin:round;stroke-miterlimit:10;stroke-dasharray:none;stroke-opacity:1"
           d="m 40.363,539.688 1097.239,0" /><path
           id="path46"
           style="fill:none;stroke:#f2f2f2;stroke-width:0.70866102;stroke-linecap:butt;stroke-linejoin:round;stroke-miterlimit:10;stroke-dasharray:none;stroke-opacity:1"
           d="m 58.418,37.957 0,546.656" /><path
           id="path48"
           style="fill:none;stroke:#f2f2f2;stroke-width:0.70866102;stroke-linecap:butt;stroke-linejoin:round;stroke-miterlimit:10;stroke-dasharray:none;stroke-opacity:1"
           d="m 335.113,37.957 0,546.656" /><path
           id="path50"
           style="fill:none;stroke:#f2f2f2;stroke-width:0.70866102;stroke-linecap:butt;stroke-linejoin:round;stroke-miterlimit:10;stroke-dasharray:none;stroke-opacity:1"
           d="m 611.809,37.957 0,546.656" /><path
           id="path52"
           style="fill:none;stroke:#f2f2f2;stroke-width:0.70866102;stroke-linecap:butt;stroke-linejoin:round;stroke-miterlimit:10;stroke-dasharray:none;stroke-opacity:1"
           d="m 888.504,37.957 0,546.656" /><path
           id="path54"
           style="fill:none;stroke:#ffffff;stroke-width:1.41732299;stroke-linecap:butt;stroke-linejoin:round;stroke-miterlimit:10;stroke-dasharray:none;stroke-opacity:1"
           d="m 40.363,62.805 1097.239,0" /><path
           id="path56"
           style="fill:none;stroke:#ffffff;stroke-width:1.41732299;stroke-linecap:butt;stroke-linejoin:round;stroke-miterlimit:10;stroke-dasharray:none;stroke-opacity:1"
           d="m 40.363,168.777 1097.239,0" /><path
           id="path58"
           style="fill:none;stroke:#ffffff;stroke-width:1.41732299;stroke-linecap:butt;stroke-linejoin:round;stroke-miterlimit:10;stroke-dasharray:none;stroke-opacity:1"
           d="m 40.363,274.754 1097.239,0" /><path
           id="path60"
           style="fill:none;stroke:#ffffff;stroke-width:1.41732299;stroke-linecap:butt;stroke-linejoin:round;stroke-miterlimit:10;stroke-dasharray:none;stroke-opacity:1"
           d="m 40.363,380.727 1097.239,0" /><path
           id="path62"
           style="fill:none;stroke:#ffffff;stroke-width:1.41732299;stroke-linecap:butt;stroke-linejoin:round;stroke-miterlimit:10;stroke-dasharray:none;stroke-opacity:1"
           d="m 40.363,486.699 1097.239,0" /><path
           id="path64"
           style="fill:none;stroke:#ffffff;stroke-width:1.41732299;stroke-linecap:butt;stroke-linejoin:round;stroke-miterlimit:10;stroke-dasharray:none;stroke-opacity:1"
           d="m 196.766,37.957 0,546.656" /><path
           id="path66"
           style="fill:none;stroke:#ffffff;stroke-width:1.41732299;stroke-linecap:butt;stroke-linejoin:round;stroke-miterlimit:10;stroke-dasharray:none;stroke-opacity:1"
           d="m 473.461,37.957 0,546.656" /><path
           id="path68"
           style="fill:none;stroke:#ffffff;stroke-width:1.41732299;stroke-linecap:butt;stroke-linejoin:round;stroke-miterlimit:10;stroke-dasharray:none;stroke-opacity:1"
           d="m 750.156,37.957 0,546.656" /><path
           id="path70"
           style="fill:none;stroke:#ffffff;stroke-width:1.41732299;stroke-linecap:butt;stroke-linejoin:round;stroke-miterlimit:10;stroke-dasharray:none;stroke-opacity:1"
           d="m 1026.852,37.957 0,546.656" /><path
           id="path72"
           style="fill:#e31a1c;fill-opacity:1;fill-rule:nonzero;stroke:none"
           d="m 90.238,78.273 0.692,27.415 0.691,3.82 0.691,-7.406 0.692,-14.79 0.695,-18.906 0.692,34.766 0.691,-32.61 0.691,-2.953 0.692,-2.183 0.691,41.824 0.692,59.82 0.691,-79.988 0.691,-15.008 0.692,23.738 0.691,-14.015 0.692,52.644 0.695,16.606 0.691,-37.332 0.692,-20.973 0.691,3.02 0.692,115.457 0.691,-3.856 0.691,-134.347 0.692,9.496 0.691,-5.028 0.692,33.09 0.691,64.922 0.691,-87.312 0.696,100.73 0.691,-57.57 0.692,-46.524 0.691,14.567 0.691,15.054 0.692,155.747 0.691,-56.227 0.692,-138.063 0.691,15.79 0.691,-24.876 0.692,56.54 0.695,-33.692 0.692,15.293 0.691,0.375 0.691,-27.488 0.692,30.398 0.691,34.098 0.692,-64.66 0.691,-11.488 0.691,-1.762 0.692,-0.016 0.691,6.735 0.692,-6.79 0.695,42.211 0.691,-32.738 0.692,55.219 0.691,37.367 0.692,-47.605 0.691,-37.657 0.691,16.852 0.692,-27.438 0.691,49.246 0.692,213.653 0.691,30.668 0.691,-178.156 0.696,-117.282 0.691,91.172 0.692,44.102 0.691,20.207 0.691,-58.242 0.692,-23.004 0.691,-68.84 0.692,8.351 0.691,13.243 0.691,-32.743 0.692,77.86 0.691,-24.723 0.695,-19.461 0.692,9.613 0.691,-40.535 0.692,83.594 0.691,-81.633 0.692,22.028 0.691,-0.981 0.691,28.442 0.692,-31.282 0.691,2.004 0.692,121.75 0.695,16.664 0.691,-148.269 0.692,148.261 0.691,-140.168 0.692,-20.816 0.691,17.809 0.691,-3.352 0.692,-16.242 0.691,1.348 0.692,37.933 0.691,4.762 0.691,62.547 0.696,-66.922 0.691,-32.36 0.691,31.188 0.692,0.691 0.691,-28.519 0.692,62.312 0.691,-16.683 0.691,-25.879 0.692,3.832 0.691,12.363 0.692,-12.851 0.691,-32.528 0.695,52.711 0.692,30.34 0.691,-23.609 0.692,-40.551 0.691,2.949 0.691,4.379 0.692,31.504 0.691,-59.57 0.692,27.218 0.691,-5.132 0.692,-3.434 0.691,8.141 0.695,-10.469 0.692,44.226 0.691,139.801 0.691,-125.023 0.692,31.195 0.691,151.969 0.692,-86.149 0.691,-76.164 0.691,-91.597 0.692,63.015 0.691,-17.086 0.696,-48.793 0.691,40.891 0.691,131.688 0.692,-36.79 0.691,-104.886 0.692,6.527 0.691,-37.324 0.691,9.719 0.692,-6.18 0.691,80.723 0.692,-58.172 0.691,-3.766 0.695,8.641 0.692,-0.246 0.691,-6.883 0.692,-12.149 0.691,-7.824 0.691,41.012 0.692,135.152 0.691,-172.574 0.692,121.086 0.691,3.922 0.691,-87.977 0.692,-18.383 0.695,-6.027 0.692,54.328 0.691,-17.828 0.691,-8.312 0.692,21.199 0.691,-43.094 0.692,2.477 0.691,-6.61 0.691,-20.113 0.692,6.109 0.691,38.125 0.692,-33.308 0.695,-14.086 0.691,30.183 0.692,55.196 0.691,85.988 0.692,-1.035 0.691,-165.785 0.691,90.808 0.692,29.699 0.691,-93.175 0.692,-1.379 0.691,-4.93 0.691,-18.012 0.696,0.957 0.691,26.77 0.692,-7.352 0.691,3.594 0.691,5.914 0.692,-35.758 0.691,15.555 0.692,-0.34 0.691,-11.859 0.691,13.324 0.692,9.133 0.695,2.281 0.692,-21.207 0.691,-9.043 0.691,19.891 0.692,-17.356 0.691,15.004 0.692,79.238 0.691,11.852 0.691,15.289 0.692,-20.215 0.691,-39.242 0.692,-45.16 0.695,82.16 0.691,-28.863 0.692,-72.285 0.691,105.785 0.691,71.054 0.692,-18.293 0.691,-120.718 0.692,18.062 0.691,-32.683 0.692,-14.953 0.691,54.546 0.691,-14.339 0.696,-7.289 0.691,22.242 0.691,140.672 0.692,-176.758 0.691,-3.391 0.692,-19.582 0.691,2.391 0.692,15.769 0.691,4.719 0.691,-21.996 0.692,60.402 0.691,15.082 0.695,-46.347 0.692,85.425 0.691,-50.144 0.692,27.933 0.691,37.27 0.691,-71.391 0.692,51.59 0.691,8.219 0.692,-121.652 0.691,16.195 0.691,1.941 0.696,148.688 0.691,-19.988 0.692,-63.891 0.691,2.332 0.691,2.375 0.692,10.504 0.691,13.949 0.692,-27.574 0.691,6.719 0.691,-25.868 0.692,-52.453 0.691,-9.754 0.696,0 0.691,33.563 0.691,0 0.692,40.316 0.691,65.266 0.692,-3.5 0.691,-59.023 0.691,-52.403 0.692,37.602 0.691,6.91 0.692,0.223 0.691,-29.661 0.695,39.891 0.692,39.32 0.691,77.215 0.692,-69.465 0.691,-83.695 0.691,45.5 0.692,84.559 0.691,-135.414 0.692,20.378 0.691,60.821 0.691,-36.969 0.692,-19.031 0.695,56.984 0.692,58.367 0.691,-50.742 0.691,-98.191 0.692,112.457 0.691,85.758 0.692,-28.079 0.691,-135.437 0.691,-26.832 0.692,124.367 0.691,0.242 0.696,49.985 0.691,41.894 0.691,-37.14 0.692,-108.457 0.691,282.945 0.692,61.512 0.691,32.468 0.691,-137.648 0.692,-146.719 0.691,-121.148 0.692,13.3 0.691,192.602 0.695,-14.824 0.692,-65.399 0.691,-65.109 0.692,56.172 0.691,18.797 0.691,-111.184 0.692,-43.133 0.691,-20.203 0.692,-23.406 0.691,-20.785 0.691,24.488 0.692,4.094 0.695,5.422 0.691,5.699 0.692,3.031 0.691,-16.32 0.692,-19.414 0.691,12.285 0.692,2.973 0.691,-18.036 0.691,36.813 0.692,83.516 0.691,58.281 0.692,58.551 0.695,16.8 0.691,41.536 0.692,-50.094 0.691,-167.996 0.692,-50.043 0.691,-9.778 0.691,51.161 0.692,22.238 0.691,-36.973 0.692,-38.519 0.691,6.16 0.695,-26.867 0.692,22.39 0.691,339.922 0.691,31.055 0.692,-40.735 0.691,-246.953 0.692,-55.394 0.691,-33.629 0.691,1.758 0.692,9.91 0.691,135.152 0.692,-35.422 0.695,-87.863 0.691,-35.945 0.692,14.992 0.691,12.379 0.692,2.859 0.691,-26.043 0.691,15.031 0.692,-3.515 0.691,-1.383 0.692,11.598 0.691,28.234 0.692,27.188 0.695,-22.118 0.691,-38.261 0.692,37.191 0.691,38.203 0.691,-47.14 0.692,18.25 0.691,-23.875 0.692,16.617 0.691,-6.055 0.691,-38.359 0.692,-8.047 0.691,0.191 0.696,30.914 0.691,-35.14 0.691,102.972 0.692,-81.554 0.691,1.609 0.692,-13.727 0.691,71.899 0.691,-15.188 0.692,-52.976 0.691,60.699 0.692,103.051 0.695,-114.598 0.691,-53.39 0.692,8.218 0.691,48.668 0.692,-59.219 0.691,35.028 0.691,-18.399 0.692,4.375 0.691,16.688 0.692,-52.016 0.691,1.004 0.691,1.055 0.696,11.445 0.691,11.676 0.692,11.168 0.691,81.676 0.691,45.953 0.692,-35.215 0.691,-56.605 0.692,-18.438 0.691,-28.395 0.691,-16.699 0.692,109.278 0.691,105.117 0.696,-136.59 0.691,13.762 0.691,-37.196 0.692,-42.777 0.691,8.148 0.692,-14.851 0.691,8.012 0.691,44.796 0.692,-11.046 0.691,-33.918 0.692,-17.657 0.691,6.204 0.695,99.695 0.692,-32.223 0.691,-55.465 0.692,6.453 0.691,9.395 0.691,-16.973 0.692,16.602 0.691,138.68 0.692,17.296 0.691,-124.105 0.691,-47.262 0.696,17.297 0.691,-26.23 0.692,73.504 0.691,0.226 0.691,-35.285 0.692,-48.098 0.691,4.543 0.692,130.231 0.691,101.258 0.691,-1.852 0.692,-230.34 0.691,54.113 0.695,-50.347 0.692,47.504 0.691,-15.117 0.692,7.285 0.691,-15.86 0.691,5.926 0.692,24.949 0.691,-9.726 0.692,-48.602 0.691,56.832 0.692,85.168 0.691,-58.484 0.695,-19.477 0.692,29.848 0.691,-53.328 0.691,-44.153 0.692,-3.777 0.691,143.465 0.692,353.055 0.691,-113.344 0.692,-262.844 0.691,-85.976 0.691,-32.692 0.692,46.699 0.695,-30.304 0.691,160.101 0.692,-156.765 0.691,4.406 0.692,20.297 0.691,55.113 0.691,-9.965 0.692,-63.031 0.691,-25.945 0.692,62.804 0.691,155.621 0.695,-60.949 0.692,-105.965 0.691,-51.429 0.692,37.554 0.691,-9.757 0.691,-28.247 0.692,66.27 0.691,-12.418 0.692,-28.637 0.691,26.535 0.691,22.868 0.692,-49.805 0.695,-27.125 0.692,18.074 0.691,145.235 0.691,20.043 0.692,-130.473 0.691,-15.266 0.692,11.344 0.691,-13.457 0.691,-0.418 0.692,21.715 0.691,71.972 0.692,-87.152 0.695,-37.984 0.691,20.074 0.692,36.504 0.691,-54.195 0.692,1.168 0.691,22.632 0.691,-27.164 0.692,17.055 0.691,7.57 0.692,-26.801 0.691,18.047 0.691,-5.765 0.696,1.898 0.691,26.66 0.692,0.895 0.691,-33.469 0.691,15.195 0.692,-20.144 0.691,24.191 0.692,-17.039 0.691,37.086 0.691,22.617 0.692,-39.214 0.695,-18.848 0.692,31.215 0.691,-0.657 0.691,-36.398 0.692,33.77 0.691,-7.426 0.692,50.801 0.691,86.964 0.691,-112.043 0.692,19.426 0.691,-28.945 0.692,60.894 0.695,98.973 0.691,-120.312 0.692,20.425 0.691,-28.949 0.692,-56.945 0.691,66.465 0.691,-62.977 0.692,1.945 0.691,6.899 0.692,32.312 0.691,-62.718 0.691,18.722 0.696,-4.66 0.691,64.391 0.691,-8.746 0.692,44.234 0.691,-2.043 0.692,-40.555 0.691,-54.191 0.692,-18.234 0.691,42.617 0.691,47.953 0.692,67.945 0.691,-134.273 0.695,-8.645 0.692,3.5 0.691,34.012 0.692,7.25 0.691,-15.727 0.692,-27.046 0.691,23.878 0.691,-41.015 0.692,98.758 0.691,-16.68 0.692,48.363 0.695,1.442 0.691,-37.368 0.692,-34.98 0.691,5.621 0.691,-63.184 0.692,24.993 0.691,69.375 0.692,-47.473 0.691,-36.727 0.691,131.004 0.692,30.356 0.691,154.469 0.696,-155.415 0.691,-37.796 0.691,-106.856 0.692,-17.535 0.691,-11.352 0.692,4.641 0.691,15.316 0.691,-8.418 0.692,24.485 0.691,8.683 0.692,153.508 0.691,97.75 0.695,-108.953 0.692,-98.805 0.691,17.735 0.692,-28.332 0.691,-47.297 0.691,-32.106 0.692,16.262 0.691,23.238 0.692,22.528 0.691,-7.578 0.691,42.09 0.692,-93.286 0.695,25.219 0.692,-25.586 0.691,89.832 0.691,-88.812 0.692,51.172 0.691,-32.196 0.692,-16.996 0.691,9.289 0.691,1.36 0.692,53.922 0.691,59.136 0.696,-63.594 0.691,8.782 0.691,18.211 0.692,-93.375 0.691,18.968 0.692,15.305 0.691,43.461 0.691,71.938 0.692,-85.165 0.691,-50.726 0.692,7.629 0.691,-22.578 0.695,128.117 0.692,91.641 0.691,67.874 0.692,-6.234 0.691,-37.074 0.691,-116.414 0.692,-96.625 0.691,12.715 0.692,-20.817 0.691,96.082 0.691,-82.84 0.692,10.915 0.695,7.988 0.692,0.855 0.691,33.957 0.691,-42.265 0.692,4.035 0.691,28.289 0.692,-41.817 0.691,-30.675 0.691,43.996 0.692,41.691 0.691,-25.472 0.692,19.75 0.695,13.718 0.691,6.157 0.692,-64.344 0.691,-24.778 0.692,-12.312 0.691,60.664 0.691,5.453 0.692,-37.539 0.691,45.137 0.692,-40.32 0.691,-35.149 0.695,0.57 0.692,4.09 0.691,-8.488 0.692,9.855 0.691,7.75 0.691,22.454 0.692,38.519 0.691,14.781 0.692,-65.855 0.691,-21.824 0.691,-4.922 0.692,30.859 0.695,9.402 0.691,88.801 0.692,80.828 0.691,-106.418 0.692,-77.121 0.691,5.602 0.691,60.656 0.692,-87.98 0.691,28.363 0.692,-16.598 0.691,45.52 0.692,-19.602 0.695,38.313 0.691,25.508 0.692,42.726 0.691,25.262 0.691,-136.914 0.692,-20.16 0.691,15.699 0.692,145.152 0.691,-127.039 0.692,-23.621 0.691,-19.012 0.691,12.535 0.696,-9.871 0.691,27.621 0.691,-17.105 0.692,3.207 0.691,77.461 0.692,-13.727 0.691,-69.894 0.691,40.73 0.692,13.739 0.691,-72.918 0.692,23.707 0.691,3.734 0.695,-14.129 0.692,-0.23 0.691,-9.582 0.692,1.058 0.691,-5.613 0.691,66.344 0.692,-5.684 0.691,-8.312 0.692,12.933 0.691,-45.039 0.691,25.297 0.696,-44.277 0.691,3.148 0.692,12.063 0.691,-9.055 0.691,7.934 0.692,0.824 0.691,0.64 0.692,31.125 0.691,-16.336 0.691,-0.574 0.692,-8.226 0.691,-15.59 0.696,32.211 0.691,-15.106 0.691,37.797 0.692,145.18 0.691,-32.715 0.692,-139.305 0.691,-35.847 0.691,20.289 0.692,-1.684 0.691,61.817 0.692,35.773 0.691,-49.102 0.695,-52.519 0.692,4.965 0.691,-3.864 0.692,21.415 0.691,4.468 0.691,-15.371 0.692,7.656 0.691,88.125 0.692,44.036 0.691,21.293 0.691,-115.989 0.692,-57.449 0.695,23.57 0.692,-15.093 0.691,16.378 0.691,-7.933 0.692,-22.524 0.691,-4.718 0.692,25.531 0.691,66.949 0.691,-46.949 0.692,-0.309 0.691,20.883 0.696,-36.488 0.691,17.726 0.691,-22.609 0.692,-14.004 0.691,-5.547 0.692,73.481 0.691,-44.481 0.691,11.434 0.692,-48.027 0.691,2.933 0.692,50.152 0.691,28.11 0.695,-64.699 0.692,44.539 0.691,24.605 0.691,12.848 0.692,-24.863 0.691,9.996 0.692,14.172 0.691,-25.61 0.692,-47.289 0.691,8.375 0.691,-11.695 0.692,-21.281 0.695,44.613 0.691,-36.172 0.692,15.672 0.691,-6.559 0.692,-6.586 0.691,109.094 0.692,-47.598 0.691,-53.617 0.691,8.207 0.692,32.578 0.691,127.778 0.692,-38.481 0.695,-149.957 0.691,90.551 0.692,-64.16 0.691,-18.27 0.691,-8.234 0.692,21.211 0.691,97.871 0.692,-38.723 0.691,-61.652 0.691,28.437 0.692,17.879 0.695,-31.394 0.692,-26.028 0.691,36.368 0.691,-10.676 0.692,21.09 0.691,22.683 0.692,33.223 0.691,-74.32 0.691,-22.465 0.692,-0.172 0.691,8.793 0.692,12.844 0.695,59.824 0.691,-6.762 0.692,56.942 0.691,-5.329 0.692,-73.886 0.691,-25.524 0.691,18.949 0.692,10.77 0.691,-63.894 0.692,7.402 0.691,5.523 0.691,67.227 0.696,51.301 0.691,-101.735 0.692,-30.066 0.691,-3.367 0.691,123.929 0.692,-51.914 0.691,-47.195 0.692,-21.715 0.691,14.832 0.691,48.781 0.692,-9.894 0.691,-13.777 0.696,-15.055 0.691,-10.836 0.691,-7.938 0.692,-7.57 0.691,6.098 0.692,36.258 0.691,-37.364 0.691,63.449 0.692,119.985 0.691,-105.914 0.692,-81.551 0.695,9.078 0.691,14.305 0.692,-26.254 0.691,74.066 0.692,54.211 0.691,-40.812 0.691,-12.649 0.692,41.59 0.691,-35.449 0.692,-81.645 0.691,75.747 0.691,-62.743 0.696,73.188 0.691,25.48 0.692,43.203 0.691,24.606 0.691,-14.231 0.692,-97.097 0.691,-65.539 0.692,12.39 0.691,68.707 0.691,-54.199 0.692,0.848 0.691,-15.141 0.695,-5.976 0.692,-2.477 0.691,37.504 0.692,-2.512 0.691,-40.129 0.692,37.493 0.691,48.082 0.691,16.941 0.692,10.902 0.691,-40.207 0.692,-66.551 0.691,45.711 0.695,-2.695 0.692,-24.914 0.691,20.504 0.692,-25.684 0.691,25.047 0.691,-14.832 0.692,-17.304 0.691,170.308 0.692,127.402 0.691,-58.136 0.691,-146.758 0.696,-94.309 0.691,13.813 0.691,15.445 0.692,16.25 0.691,-20.062 0.692,-25.594 0.691,-9.203 0.691,-2.664 0.692,9.801 0.691,36.285 0.692,19.511 0.691,5.762 0.695,-51.73 0.692,58.597 0.691,39.793 0.692,-57.312 0.691,-15.473 0.691,-25.035 0.692,-10 0.691,7.371 0.692,-0.535 0.691,26.48 0.692,12.977 0.691,-46.918 0.695,36.246 0.692,-41.387 0.691,61.211 0.691,-6.996 0.692,-35.312 0.691,-21.321 0.692,-0.027 0.691,36.652 0.691,39.438 0.692,-49.113 0.691,-29.559 0.692,38.328 0.695,36.899 0.691,-21.903 0.692,-18.879 0.691,49.082 0.692,45.356 0.691,47.859 0.691,32.965 0.692,18.57 0.691,-169.25 0.692,-46.367 0.691,-3.375 0.695,12.793 0.692,-8.711 0.691,61.047 0.692,23.68 0.691,-87.778 0.691,35.93 0.692,-12.91 0.691,12.488 0.692,38.406 0.691,-21.218 0.691,-63.414 0.692,-0.883 0.695,15.863 0.692,52.961 0.691,-33.309 0.691,-27.722 0.692,-3.176 0.691,10.27 0.692,-4.836 0.691,86.785 0.691,271.347 0.692,-8.879 0.691,-255.917 0.692,-92.891 0.695,-7.848 0.691,73.754 0.692,-57.609 0.691,-4.332 0.692,2.894 0.691,11.77 0.691,25.254 0.692,153.289 0.691,154.273 0.692,-273.777 0.691,-58.238 0.691,7.492 0.696,39.984 0.691,67.528 0.692,-69.563 0.691,-61.574 0.691,46.461 0.692,37.297 0.691,-51.164 0.692,-38.051 0.691,17.769 0.691,4.535 0.692,-17.753 0.695,-7.204 0.692,17.852 0.691,-19.758 0.691,-2.449 0.692,27.102 0.691,64.437 0.692,-50.566 0.691,-30.024 0.691,-2.879 0.692,-3.097 0.691,23.156 0.692,20.39 0.695,30.211 0.691,-26.128 0.692,-20.274 0.691,-32.207 0.691,26.77 0.692,-8.043 0.691,2.855 0.692,18.02 0.691,-10.543 0.692,35.746 0.691,-19.75 0.691,-43.36 0.696,8.063 0.691,31.133 0.691,-40.309 0.692,0.883 0.691,6.523 0.692,96.192 0.691,-99.535 0.692,140.273 0.691,78.395 0.691,-173.301 0.692,-37.297 0.691,-1.582 0.695,-13 0.692,24.793 0.691,47.73 0.692,137.121 0.691,-27.093 0.691,-52.278 0.692,-33.652 0.691,-29.086 0.692,-56.547 0.691,43.981 0.691,-20.379 0.696,-13.856 0.691,18.926 0.692,-18.484 0.691,17.847 0.691,26.367 0.692,-48.261 0.691,8.898 0.692,-8.004 0.691,8.621 0.691,40.989 0.692,44.172 0.691,-69.032 0.696,-41.468 0.691,6.316 0.691,-4.75 0.692,37.598 0.691,-17.793 0.692,67.695 0.691,262.012 0.691,-167.371 0.692,-56.61 0.691,-120.711 0.692,91.328 0.691,-56.714 0.695,34.554 0.692,71.778 0.691,-65.52 0.692,-61.785 0.691,16.086 0.691,-27.383 0.692,9.059 0.691,55.226 0.692,-55.519 0.691,13.968 0.691,-2.828 0.692,39.664 0.695,76.871 0.692,-130.125 0.691,-1.129 0.691,-9.355 0.692,52.887 0.691,88.484 0.692,114.324 0.691,-143.355 0.691,-114.242 0.692,11.078 0.691,51.562 0.696,17.496 0.691,-14.941 0.691,-58.477 0.692,-8.691 0.691,31.699 0.692,32.969 0.691,32.551 0.691,-30.52 0.692,-17.926 0.691,-14.375 0.692,-35.539 0.691,8.59 0.695,121.481 0.692,2.992 0.691,1.262 0.692,-85.864 0.691,-2.238 0.691,-17.793 0.692,13.543 0.691,-10.156 0.692,-29.039 0.691,50.101 0.691,-46.918 0.692,83.399 0.695,35.203 0.691,-69.141 0.692,-49.008 0.691,7.055 0.692,40.692 0.691,3.269 0.692,-57.508 0.691,87.86 0.691,16.328 0.692,-82.063 0.691,-3.554 0.692,1.031 0.695,84.59 0.691,-37.094 0.692,7.809 0.691,-20.692 0.692,-29.285 0.691,-16.977 0.691,6.176 0.692,27.082 0.691,-3.754 0.692,-3.328 0.691,-22.058 0.695,40.441 0.692,-52.563 0.691,89.395 0.691,14.031 0.692,-49.468 0.691,-6.493 0.692,-40.215 0.691,24.969 0.691,-28.531 0.692,9.133 0.691,-6.625 0.692,-2.633 0.695,34.07 0.691,-14.761 0.692,-16.399 0.691,59.594 0.692,189.422 0.691,-77.25 0.691,-164.582 0.692,75.465 0.691,-29.641 0.692,-47.859 0.691,23.156 0.692,41.68 0.695,-67.454 0.691,57.004 0.692,-43.882 0.691,30.636 0.691,-47.164 0.692,-1.816 0.691,15.488 0.692,65.289 0.691,6.531 0.691,53.133 0.692,-83.211 0.691,-36.383 0.696,46.907 0.691,43.183 0.691,-36.34 0.692,-60.781 0.691,22.668 0.692,-3.113 0.691,16.152 0.691,49.129 0.692,-55.973 0.691,-43.406 0.692,18.817 0.695,6.199 0.691,1.34 0.692,-4.012 0.691,110.219 0.692,-132.969 0.691,2.601 0.691,-1.91 0.692,27.95 0.691,-29.747 0.692,41.993 0.691,148.757 0.691,-18.765 0.696,-19.641 0.691,6.481 0.692,-136.84 0.691,32.785 0.691,37.949 0.692,-69.453 0.691,-19.316 0.692,26.578 0.691,50.504 0.691,-70.094 0.692,46.746 0.691,36.379 0.696,27.125 0.691,17.465 0.691,-137.184 0.692,49.188 0.691,-49.36 0.692,24.453 0.691,5.86 0.691,-21.836 0.692,18.746 0.691,94.316 0.692,44.227 0.691,-90.785 0.695,-75.742 0.692,16.011 0.691,-1.035 0.692,11.207 0.691,89.141 0.691,25.414 0.692,1.453 0.691,-80.348 0.692,-62.711 0.691,19.039 0.691,0.165 0.692,10.171 0.695,94.633 0.692,39.946 0.691,47.203 0.691,-1.77 0.692,-192.094 0.691,-5.867 0.692,33.496 0.691,-23.515 0.691,-22.282 0.692,1.02 0.691,42.613 0.695,59.332 0.692,-15.59 0.691,10.004 0.692,47.723 0.691,-6.273 0.691,-67.243 0.692,-66.386 0.691,3.308 0.692,9.824 0.691,15.415 0.692,36.988 0.691,-39.559 0.695,0.496 0.692,57.992 0.691,-9.562 0.691,-80.746 0.692,25.453 0.691,-24.137 0.692,47.524 0.691,49.871 0.692,-82.797 0.691,27.644 0.691,41.829 0.692,-53.797 0.695,119.566 0.691,6.996 0.692,-88.187 0.691,25.683 0.692,-40.726 0.691,-38.738 0.691,22.757 0.692,106.848 0.691,-43.609 0.692,-40.008 0.691,-45.84 0.691,-13.676 0.696,54.656 0.691,20.735 0.692,-19.168 0.691,17.984 0.691,20.488 0.692,66.04 0.691,-95.77 0.692,-36.648 0.691,-0.297 0.691,-18.012 0.692,25.547 0.695,28.152 0.692,-24.699 0.691,-27.426 0.691,-9.644 0.692,20.211 0.691,-16.243 0.692,25.899 0.691,27.98 0.691,29.66 0.692,46.063 0.691,-98.219 0.692,-24.418 0.695,76.09 0.691,130.469 0.692,-48.918 0.691,-110.793 0.692,-39.992 0.691,-17.664 0.691,33.703 0.692,-38.238 0.691,52.066 0.692,26.75 0.691,-53.414 0.691,-22.442 0.696,29.758 0.691,-29.656 0.692,-3.625 0.691,10.367 0.691,-1.523 0.692,41.402 0.691,67.359 0.692,-40.628 0.691,13.617 0.691,71.578 0.692,49.418 0.691,-69.785 0.696,-75.18 0.691,-26.203 0.691,-11.625 0.692,-25.027 0.691,-2.891 0.692,73.023 0.691,19.02 0.691,41.004 0.692,-122.598 0.691,24.727 0.692,60.902 0.695,-8.422 0.691,-53.305 0.692,62.903 0.691,72.492 0.692,-163.688 0.691,39.754 0.691,-26.984 0.692,-4.543 0.691,9.844 0.692,19.305 0.691,32.492 0.691,-6.543 0.696,-61.403 0.691,13.692 0.691,40.117 0.692,-57.621 0.691,57.371 0.692,69.371 0.691,-49.504 0.692,-61.633 0.691,56.661 0.691,-69.211 0.692,29.308 0.691,-29.996 0.695,-5.672 0.692,-0.539 0.691,18.86 0.692,23.214 0.691,23.828 0.692,-54.21 0.691,-2.665 0.691,0.567 0.692,6.531 0.691,5.047 0.692,2.336 0.691,0.262 0.695,15.214 0.692,-31.906 0.691,11.453 0.691,6.668 0.692,-3.644 0.691,-1.309 0.692,-10.597 0.691,-3.184 0.691,53.957 0.692,58.555 0.691,-109.528 0.696,-6.879 0.691,15.344 0.691,39.742 0.692,17.602 0.691,-30.699 0.692,-14.516 0.691,-20.074 0.691,0.265 0.692,13.583 0.691,80.855 0.692,-68.227 0.691,55.622 0.695,12.527 0.692,-49.395 0.691,-46.535 0.692,-0.875 0.691,4.098 0.691,12.242 0.692,-25.008 0.691,31.004 0.692,81.481 0.691,55.57 0.691,-164.578 0.692,3.527 0.695,24.758 0.692,70.902 0.691,-18.617 0.691,-55.898 0.692,0.394 0.691,54.832 0.692,-66.847 0.691,34.953 0.691,47.152 0.692,73.414 0.691,23.324 0.692,-92.449 0.695,-96.105 0.691,18.468 0.692,-16.132 0.691,-1.7 0.692,38.055 0.691,-1.637 0.691,3.516 0.692,-45.918 0.691,0.48 0.692,1.043 0.691,130.723 0.695,74.824 0.692,-38.457 0.691,-84.109 0.692,-44.399 0,-41.968 -0.692,0 -0.691,0 -0.692,0 -0.695,0 -0.691,0 -0.692,0 -0.691,0 -0.692,0 -0.691,0 -0.691,0 -0.692,0 -0.691,0 -0.692,0 -0.691,0 -0.695,0 -0.692,0 -0.691,0 -0.692,0 -0.691,0 -0.691,0 -0.692,0 -0.691,0 -0.692,0 -0.691,0 -0.691,0 -0.692,0 -0.695,0 -0.692,0 -0.691,0 -0.691,0 -0.692,0 -0.691,0 -0.692,0 -0.691,0 -0.691,0 -0.692,0 -0.691,0 -0.692,0 -0.695,0 -0.691,0 -0.692,0 -0.691,0 -0.692,0 -0.691,0 -0.691,0 -0.692,0 -0.691,0 -0.692,0 -0.691,0 -0.691,0 -0.696,0 -0.691,0 -0.692,0 -0.691,0 -0.691,0 -0.692,0 -0.691,0 -0.692,0 -0.691,0 -0.691,0 -0.692,0 -0.695,0 -0.691,0 -0.692,0 -0.691,0 -0.692,0 -0.691,0 -0.691,0 -0.692,0 -0.691,0 -0.692,0 -0.691,0 -0.692,0 -0.695,0 -0.691,0 -0.692,0 -0.691,0 -0.691,0 -0.692,0 -0.691,0 -0.692,0 -0.691,0 -0.692,0 -0.691,0 -0.691,0 -0.696,0 -0.691,0 -0.691,0 -0.692,0 -0.691,0 -0.692,0 -0.691,0 -0.691,0 -0.692,0 -0.691,0 -0.692,0 -0.691,0 -0.695,0 -0.692,0 -0.691,0 -0.692,0 -0.691,0 -0.691,0 -0.692,0 -0.691,0 -0.692,0 -0.691,0 -0.691,0 -0.696,0 -0.691,0 -0.692,0 -0.691,0 -0.691,0 -0.692,0 -0.691,0 -0.692,0 -0.691,0 -0.691,0 -0.692,0 -0.691,0 -0.696,0 -0.691,0 -0.691,0 -0.692,0 -0.691,0 -0.692,0 -0.691,0 -0.691,0 -0.692,0 -0.691,0 -0.692,0 -0.691,0 -0.695,0 -0.692,0 -0.691,0 -0.692,0 -0.691,0 -0.691,0 -0.692,0 -0.691,0 -0.692,0 -0.691,0 -0.691,0 -0.692,0 -0.695,0 -0.692,0 -0.691,0 -0.691,0 -0.692,0 -0.691,0 -0.692,0 -0.691,0 -0.691,0 -0.692,0 -0.691,0 -0.696,0 -0.691,0 -0.691,0 -0.692,0 -0.691,0 -0.692,0 -0.691,0 -0.691,0 -0.692,0 -0.691,0 -0.692,0 -0.691,0 -0.695,0 -0.692,0 -0.691,0 -0.691,0 -0.692,0 -0.691,0 -0.692,0 -0.691,0 -0.692,0 -0.691,0 -0.691,0 -0.692,0 -0.695,0 -0.691,0 -0.692,0 -0.691,0 -0.692,0 -0.691,0 -0.692,0 -0.691,0 -0.691,0 -0.692,0 -0.691,0 -0.692,0 -0.695,0 -0.691,0 -0.692,0 -0.691,0 -0.691,0 -0.692,0 -0.691,0 -0.692,0 -0.691,0 -0.691,0 -0.692,0 -0.695,0 -0.692,0 -0.691,0 -0.691,0 -0.692,0 -0.691,0 -0.692,0 -0.691,0 -0.691,0 -0.692,0 -0.691,0 -0.692,0 -0.695,0 -0.691,0 -0.692,0 -0.691,0 -0.692,0 -0.691,0 -0.691,0 -0.692,0 -0.691,0 -0.692,0 -0.691,0 -0.691,0 -0.696,0 -0.691,0 -0.692,0 -0.691,0 -0.691,0 -0.692,0 -0.691,0 -0.692,0 -0.691,0 -0.691,0 -0.692,0 -0.691,0 -0.696,0 -0.691,0 -0.691,0 -0.692,0 -0.691,0 -0.692,0 -0.691,0 -0.691,0 -0.692,0 -0.691,0 -0.692,0 -0.691,0 -0.695,0 -0.692,0 -0.691,0 -0.692,0 -0.691,0 -0.691,0 -0.692,0 -0.691,0 -0.692,0 -0.691,0 -0.691,0 -0.696,0 -0.691,0 -0.692,0 -0.691,0 -0.691,0 -0.692,0 -0.691,0 -0.692,0 -0.691,0 -0.691,0 -0.692,0 -0.691,0 -0.695,0 -0.692,0 -0.691,0 -0.692,0 -0.691,0 -0.692,0 -0.691,0 -0.691,0 -0.692,0 -0.691,0 -0.692,0 -0.691,0 -0.695,0 -0.692,0 -0.691,0 -0.692,0 -0.691,0 -0.691,0 -0.692,0 -0.691,0 -0.692,0 -0.691,0 -0.691,0 -0.692,0 -0.695,0 -0.691,0 -0.692,0 -0.691,0 -0.692,0 -0.691,0 -0.691,0 -0.692,0 -0.691,0 -0.692,0 -0.691,0 -0.695,0 -0.692,0 -0.691,0 -0.692,0 -0.691,0 -0.691,0 -0.692,0 -0.691,0 -0.692,0 -0.691,0 -0.692,0 -0.691,0 -0.695,0 -0.692,0 -0.691,0 -0.691,0 -0.692,0 -0.691,0 -0.692,0 -0.691,0 -0.691,0 -0.692,0 -0.691,0 -0.692,0 -0.695,0 -0.691,0 -0.692,0 -0.691,0 -0.692,0 -0.691,0 -0.691,0 -0.692,0 -0.691,0 -0.692,0 -0.691,0 -0.691,0 -0.696,0 -0.691,0 -0.692,0 -0.691,0 -0.691,0 -0.692,0 -0.691,0 -0.692,0 -0.691,0 -0.691,0 -0.692,0 -0.695,0 -0.692,0 -0.691,0 -0.691,0 -0.692,0 -0.691,0 -0.692,0 -0.691,0 -0.691,0 -0.692,0 -0.691,0 -0.692,0 -0.695,0 -0.691,0 -0.692,0 -0.691,0 -0.692,0 -0.691,0 -0.691,0 -0.692,0 -0.691,0 -0.692,0 -0.691,0 -0.691,0 -0.696,0 -0.691,0 -0.692,0 -0.691,0 -0.691,0 -0.692,0 -0.691,0 -0.692,0 -0.691,0 -0.691,0 -0.692,0 -0.691,0 -0.696,0 -0.691,0 -0.691,0 -0.692,0 -0.691,0 -0.692,0 -0.691,0 -0.691,0 -0.692,0 -0.691,0 -0.692,0 -0.695,0 -0.691,0 -0.692,0 -0.691,0 -0.691,0 -0.692,0 -0.691,0 -0.692,0 -0.691,0 -0.692,0 -0.691,0 -0.691,0 -0.696,0 -0.691,0 -0.691,0 -0.692,0 -0.691,0 -0.692,0 -0.691,0 -0.692,0 -0.691,0 -0.691,0 -0.692,0 -0.691,0 -0.695,0 -0.692,0 -0.691,0 -0.692,0 -0.691,0 -0.691,0 -0.692,0 -0.691,0 -0.692,0 -0.691,0 -0.691,0 -0.692,0 -0.695,0 -0.692,0 -0.691,0 -0.691,0 -0.692,0 -0.691,0 -0.692,0 -0.691,0 -0.691,0 -0.692,0 -0.691,0 -0.696,0 -0.691,0 -0.691,0 -0.692,0 -0.691,0 -0.692,0 -0.691,0 -0.691,0 -0.692,0 -0.691,0 -0.692,0 -0.691,0 -0.695,0 -0.692,0 -0.691,0 -0.692,0 -0.691,0 -0.691,0 -0.692,0 -0.691,0 -0.692,0 -0.691,0 -0.691,0 -0.692,0 -0.695,0 -0.692,0 -0.691,0 -0.691,0 -0.692,0 -0.691,0 -0.692,0 -0.691,0 -0.691,0 -0.692,0 -0.691,0 -0.692,0 -0.695,0 -0.691,0 -0.692,0 -0.691,0 -0.692,0 -0.691,0 -0.691,0 -0.692,0 -0.691,0 -0.692,0 -0.691,0 -0.695,0 -0.692,0 -0.691,0 -0.692,0 -0.691,0 -0.691,0 -0.692,0 -0.691,0 -0.692,0 -0.691,0 -0.691,0 -0.692,0 -0.695,0 -0.691,0 -0.692,0 -0.691,0 -0.692,0 -0.691,0 -0.692,0 -0.691,0 -0.691,0 -0.692,0 -0.691,0 -0.692,0 -0.695,0 -0.691,0 -0.692,0 -0.691,0 -0.692,0 -0.691,0 -0.691,0 -0.692,0 -0.691,0 -0.692,0 -0.691,0 -0.691,0 -0.696,0 -0.691,0 -0.691,0 -0.692,0 -0.691,0 -0.692,0 -0.691,0 -0.691,0 -0.692,0 -0.691,0 -0.692,0 -0.695,0 -0.691,0 -0.692,0 -0.691,0 -0.692,0 -0.691,0 -0.691,0 -0.692,0 -0.691,0 -0.692,0 -0.691,0 -0.692,0 -0.695,0 -0.691,0 -0.692,0 -0.691,0 -0.691,0 -0.692,0 -0.691,0 -0.692,0 -0.691,0 -0.691,0 -0.692,0 -0.691,0 -0.696,0 -0.691,0 -0.691,0 -0.692,0 -0.691,0 -0.692,0 -0.691,0 -0.691,0 -0.692,0 -0.691,0 -0.692,0 -0.691,0 -0.695,0 -0.692,0 -0.691,0 -0.692,0 -0.691,0 -0.691,0 -0.692,0 -0.691,0 -0.692,0 -0.691,0 -0.691,0 -0.696,0 -0.691,0 -0.692,0 -0.691,0 -0.691,0 -0.692,0 -0.691,0 -0.692,0 -0.691,0 -0.691,0 -0.692,0 -0.691,0 -0.696,0 -0.691,0 -0.691,0 -0.692,0 -0.691,0 -0.692,0 -0.691,0 -0.691,0 -0.692,0 -0.691,0 -0.692,0 -0.691,0 -0.695,0 -0.692,0 -0.691,0 -0.692,0 -0.691,0 -0.691,0 -0.692,0 -0.691,0 -0.692,0 -0.691,0 -0.691,0 -0.692,0 -0.695,0 -0.692,0 -0.691,0 -0.691,0 -0.692,0 -0.691,0 -0.692,0 -0.691,0 -0.691,0 -0.692,0 -0.691,0 -0.695,0 -0.692,0 -0.691,0 -0.692,0 -0.691,0 -0.691,0 -0.692,0 -0.691,0 -0.692,0 -0.691,0 -0.692,0 -0.691,0 -0.695,0 -0.692,0 -0.691,0 -0.691,0 -0.692,0 -0.691,0 -0.692,0 -0.691,0 -0.692,0 -0.691,0 -0.691,0 -0.692,0 -0.695,0 -0.691,0 -0.692,0 -0.691,0 -0.692,0 -0.691,0 -0.691,0 -0.692,0 -0.691,0 -0.692,0 -0.691,0 -0.691,0 -0.696,0 -0.691,0 -0.692,0 -0.691,0 -0.691,0 -0.692,0 -0.691,0 -0.692,0 -0.691,0 -0.691,0 -0.692,0 -0.695,0 -0.692,0 -0.691,0 -0.691,0 -0.692,0 -0.691,0 -0.692,0 -0.691,0 -0.691,0 -0.692,0 -0.691,0 -0.692,0 -0.695,0 -0.691,0 -0.692,0 -0.691,0 -0.692,0 -0.691,0 -0.691,0 -0.692,0 -0.691,0 -0.692,0 -0.691,0 -0.691,0 -0.696,0 -0.691,0 -0.692,0 -0.691,0 -0.691,0 -0.692,0 -0.691,0 -0.692,0 -0.691,0 -0.691,0 -0.692,0 -0.691,0 -0.696,0 -0.691,0 -0.691,0 -0.692,0 -0.691,0 -0.692,0 -0.691,0 -0.691,0 -0.692,0 -0.691,0 -0.692,0 -0.695,0 -0.691,0 -0.692,0 -0.691,0 -0.692,0 -0.691,0 -0.691,0 -0.692,0 -0.691,0 -0.692,0 -0.691,0 -0.691,0 -0.696,0 -0.691,0 -0.691,0 -0.692,0 -0.691,0 -0.692,0 -0.691,0 -0.692,0 -0.691,0 -0.691,0 -0.692,0 -0.691,0 -0.695,0 -0.692,0 -0.691,0 -0.692,0 -0.691,0 -0.692,0 -0.691,0 -0.691,0 -0.692,0 -0.691,0 -0.692,0 -0.691,0 -0.695,0 -0.692,0 -0.691,0 -0.691,0 -0.692,0 -0.691,0 -0.692,0 -0.691,0 -0.691,0 -0.692,0 -0.691,0 -0.692,0 -0.695,0 -0.691,0 -0.692,0 -0.691,0 -0.692,0 -0.691,0 -0.691,0 -0.692,0 -0.691,0 -0.692,0 -0.691,0 -0.695,0 -0.692,0 -0.691,0 -0.692,0 -0.691,0 -0.691,0 -0.692,0 -0.691,0 -0.692,0 -0.691,0 -0.691,0 -0.692,0 -0.695,0 -0.692,0 -0.691,0 -0.691,0 -0.692,0 -0.691,0 -0.692,0 -0.691,0 -0.691,0 -0.692,0 -0.691,0 -0.692,0 -0.695,0 -0.691,0 -0.692,0 -0.691,0 -0.692,0 -0.691,0 -0.691,0 -0.692,0 -0.691,0 -0.692,0 -0.691,0 -0.691,0 -0.696,0 -0.691,0 -0.692,0 -0.691,0 -0.691,0 -0.692,0 -0.691,0 -0.692,0 -0.691,0 -0.691,0 -0.692,0 -0.695,0 -0.692,0 -0.691,0 -0.691,0 -0.692,0 -0.691,0 -0.692,0 -0.691,0 -0.691,0 -0.692,0 -0.691,0 -0.692,0 -0.695,0 -0.691,0 -0.692,0 -0.691,0 -0.692,0 -0.691,0 -0.691,0 -0.692,0 -0.691,0 -0.692,0 -0.691,0 -0.691,0 -0.696,0 -0.691,0 -0.692,0 -0.691,0 -0.691,0 -0.692,0 -0.691,0 -0.692,0 -0.691,0 -0.691,0 -0.692,0 -0.691,0 -0.695,0 -0.692,0 -0.691,0 -0.692,0 -0.691,0 -0.691,0 -0.692,0 -0.691,0 -0.692,0 -0.691,0 -0.692,0 -0.695,0 -0.691,0 -0.692,0 -0.691,0 -0.691,0 -0.692,0 -0.691,0 -0.692,0 -0.691,0 -0.692,0 -0.691,0 -0.691,0 -0.696,0 -0.691,0 -0.691,0 -0.692,0 -0.691,0 -0.692,0 -0.691,0 -0.691,0 -0.692,0 -0.691,0 -0.692,0 -0.691,0 -0.695,0 -0.692,0 -0.691,0 -0.692,0 -0.691,0 -0.691,0 -0.692,0 -0.691,0 -0.692,0 -0.691,0 -0.691,0 -0.692,0 -0.695,0 -0.692,0 -0.691,0 -0.691,0 -0.692,0 -0.691,0 -0.692,0 -0.691,0 -0.691,0 -0.692,0 -0.691,0 -0.696,0 -0.691,0 -0.691,0 -0.692,0 -0.691,0 -0.692,0 -0.691,0 -0.691,0 -0.692,0 -0.691,0 -0.692,0 -0.691,0 -0.695,0 -0.692,0 -0.691,0 -0.692,0 -0.691,0 -0.691,0 -0.692,0 -0.691,0 -0.692,0 -0.691,0 -0.691,0 -0.692,0 -0.695,0 -0.692,0 -0.691,0 -0.691,0 -0.692,0 -0.691,0 -0.692,0 -0.691,0 -0.691,0 -0.692,0 -0.691,0 -0.692,0 -0.695,0 -0.691,0 -0.692,0 -0.691,0 -0.692,0 -0.691,0 -0.691,0 -0.692,0 -0.691,0 -0.692,0 -0.691,0 -0.695,0 -0.692,0 -0.691,0 -0.691,0 -0.692,0 -0.691,0 -0.692,0 -0.691,0 -0.692,0 -0.691,0 -0.691,0 -0.692,0 -0.695,0 -0.691,0 -0.692,0 -0.691,0 -0.692,0 -0.691,0 -0.692,0 -0.691,0 -0.691,0 -0.692,0 -0.691,0 -0.692,0 -0.695,0 -0.691,0 -0.692,0 -0.691,0 -0.691,0 -0.692,0 -0.691,0 -0.692,0 -0.691,0 -0.691,0 -0.692,0 -0.691,0 -0.696,0 -0.691,0 -0.691,0 -0.692,0 -0.691,0 -0.692,0 -0.691,0 -0.691,0 -0.692,0 -0.691,0 -0.692,0 -0.695,0 -0.691,0 -0.692,0 -0.691,0 -0.692,0 -0.691,0 -0.691,0 -0.692,0 -0.691,0 -0.692,0 -0.691,0 -0.691,0 -0.696,0 -0.691,0 -0.692,0 -0.691,0 -0.691,0 -0.692,0 -0.691,0 -0.692,0 -0.691,0 -0.691,0 -0.692,0 -0.691,0 -0.696,0 -0.691,0 -0.691,0 -0.692,0 -0.691,0 -0.692,0 -0.691,0 -0.691,0 -0.692,0 -0.691,0 -0.692,0 -0.691,0 -0.695,0 -0.692,0 -0.691,0 -0.692,0 -0.691,0 -0.691,0 -0.692,0 -0.691,0 -0.692,0 -0.691,0 -0.691,0 -0.696,0 -0.691,0 -0.692,0 -0.691,0 -0.691,0 -0.692,0 -0.691,0 -0.692,0 -0.691,0 -0.691,0 -0.692,0 -0.691,0 -0.695,0 -0.692,0 -0.691,0 -0.692,0 -0.691,0 -0.692,0 -0.691,0 -0.691,0 -0.692,0 -0.691,0 -0.692,0 -0.691,0 -0.695,0 -0.692,0 -0.691,0 -0.692,0 -0.691,0 -0.691,0 -0.692,0 -0.691,0 -0.692,0 -0.691,0 -0.691,0 -0.692,0 -0.695,0 -0.691,0 -0.692,0 -0.691,0 -0.692,0 -0.691,0 -0.691,0 -0.692,0 -0.691,0 -0.692,0 -0.691,0 -0.695,0 -0.692,0 -0.691,0 -0.692,0 -0.691,0 -0.691,0 -0.692,0 -0.691,0 -0.692,0 -0.691,0 -0.692,0 -0.691,0 -0.695,0 -0.692,0 -0.691,0 -0.691,0 -0.692,0 -0.691,0 -0.692,0 -0.691,0 -0.691,0 -0.692,0 -0.691,0 -0.692,0 -0.695,0 -0.691,0 -0.692,0 -0.691,0 -0.692,0 -0.691,0 -0.691,0 -0.692,0 -0.691,0 -0.692,0 -0.691,0 -0.691,0 -0.696,0 -0.691,0 -0.692,0 -0.691,0 -0.691,0 -0.692,0 -0.691,0 -0.692,0 -0.691,0 -0.691,0 -0.692,0 -0.695,0 -0.692,0 -0.691,0 -0.691,0 -0.692,0 -0.691,0 -0.692,0 -0.691,0 -0.691,0 -0.692,0 -0.691,0 -0.692,0 -0.695,0 -0.691,0 -0.692,0 -0.691,0 -0.692,0 -0.691,0 -0.691,0 -0.692,0 -0.691,0 -0.692,0 -0.691,0 -0.691,0 -0.696,0 -0.691,0 -0.692,0 -0.691,0 -0.691,0 -0.692,0 -0.691,0 -0.692,0 -0.691,0 -0.691,0 -0.692,0 -0.691,0 -0.696,0 -0.691,0 -0.691,0 -0.692,0 -0.691,0 -0.692,0 -0.691,0 -0.691,0 -0.692,0 -0.691,0 -0.692,0 -0.695,0 -0.691,0 -0.692,0 -0.691,0 -0.691,0 -0.692,0 -0.691,0 -0.692,0 -0.691,0 -0.692,0 -0.691,0 -0.691,0 -0.696,0 -0.691,0 -0.691,0 -0.692,0 -0.691,0 -0.692,0 -0.691,0 -0.692,0 -0.691,0 -0.691,0 -0.692,0 -0.691,0 -0.695,0 -0.692,0 -0.691,0 -0.692,0 -0.691,0 -0.691,0 -0.692,0 -0.691,0 -0.692,0 -0.691,0 -0.691,0 -0.692,0 -0.695,0 -0.692,0 -0.691,0 -0.691,0 -0.692,0 -0.691,0 -0.692,0 -0.691,0 -0.691,0 -0.692,0 -0.691,0 -0.696,0 -0.691,0 -0.691,0 -0.692,0 -0.691,0 -0.692,0 -0.691,0 -0.691,0 -0.692,0 -0.691,0 -0.692,0 -0.691,0 -0.695,0 -0.692,0 -0.691,0 -0.692,0 -0.691,0 -0.691,0 -0.692,0 -0.691,0 -0.692,0 -0.691,0 -0.691,0 -0.692,0 -0.695,0 -0.692,0 -0.691,0 -0.691,0 -0.692,0 -0.691,0 -0.692,0 -0.691,0 -0.691,0 -0.692,0 -0.691,0 -0.692,0 -0.695,0 -0.691,0 -0.692,0 -0.691,0 -0.692,0 -0.691,0 -0.691,0 -0.692,0 -0.691,0 -0.692,0 -0.691,0 -0.691,0 -0.696,0 -0.691,0 -0.692,0 -0.691,0 -0.691,0 -0.692,0 -0.691,0 -0.692,0 -0.691,0 -0.691,0 -0.692,0 -0.695,0 -0.691,0 -0.692,0 -0.691,0 -0.692,0 -0.691,0 -0.692,0 -0.691,0 -0.691,0 -0.692,0 -0.691,0 -0.692,0 -0.695,0 -0.691,0 -0.692,0 -0.691,0 -0.692,0 -0.691,0 -0.691,0 -0.692,0 -0.691,0 -0.692,0 -0.691,0 -0.691,0 -0.696,0 -0.691,0 -0.691,0 -0.692,0 -0.691,0 -0.692,0 -0.691,0 -0.691,0 -0.692,0 -0.691,0 -0.692,0 -0.691,0 -0.695,0 -0.692,0 -0.691,0 -0.692,0 -0.691,0 -0.691,0 -0.692,0 -0.691,0 -0.692,0 -0.691,0 -0.692,0 -0.695,0 -0.691,0 -0.692,0 -0.691,0 -0.691,0 -0.692,0 -0.691,0 -0.692,0 -0.691,0 -0.691,0 -0.692,0 -0.691,0 -0.696,0 -0.691,0 -0.691,0 -0.692,0 -0.691,0 -0.692,0 -0.691,0 -0.691,0 -0.692,0 -0.691,0 -0.692,0 -0.691,0 -0.695,0 -0.692,0 -0.691,0 -0.692,0 -0.691,0 -0.691,0 -0.692,0 -0.691,0 -0.692,0 -0.691,0 -0.691,0 -0.692,0 -0.695,0 -0.692,0 -0.691,0 -0.691,0 -0.692,0 -0.691,0 -0.692,0 -0.691,0 -0.691,0 -0.692,0 -0.691,0 -0.696,0 -0.691,0 -0.691,0 -0.692,0 -0.691,0 -0.692,0 -0.691,0 -0.691,0 -0.692,0 -0.691,0 -0.692,0 -0.691,0 -0.695,0 -0.692,0 -0.691,0 -0.692,0 -0.691,0 -0.691,0 -0.692,0 -0.691,0 -0.692,0 -0.691,0 -0.691,0 -0.692,0 -0.695,0 -0.692,0 -0.691,0 -0.691,0 -0.692,0 0,15.468 z" /><path
           id="path74"
           style="fill:#ff7f00;fill-opacity:1;fill-rule:nonzero;stroke:none"
           d="m 92.312,102.102 0.692,-14.79 0,-24.507 -0.692,0 0,39.297 z" /><path
           id="path76"
           style="fill:#ff7f00;fill-opacity:1;fill-rule:nonzero;stroke:none"
           d="m 99.23,72.074 0,-9.269 0,9.269 z" /><path
           id="path78"
           style="fill:#ff7f00;fill-opacity:1;fill-rule:nonzero;stroke:none"
           d="m 108.914,175.496 0,-112.691 0,112.691 z" /><path
           id="path80"
           style="fill:#ff7f00;fill-opacity:1;fill-rule:nonzero;stroke:none"
           d="m 114.449,213.961 0.692,-138.063 0,-13.093 -0.692,0 0,151.156 z" /><path
           id="path82"
           style="fill:#ff7f00;fill-opacity:1;fill-rule:nonzero;stroke:none"
           d="m 117.215,123.352 0,-60.547 0,60.547 z" /><path
           id="path84"
           style="fill:#ff7f00;fill-opacity:1;fill-rule:nonzero;stroke:none"
           d="m 128.977,118.809 0,-56.004 0,56.004 z" /><path
           id="path86"
           style="fill:#ff7f00;fill-opacity:1;fill-rule:nonzero;stroke:none"
           d="m 134.512,68.695 0.691,91.172 0,-97.062 -0.691,0 0,5.89 z" /><path
           id="path88"
           style="fill:#ff7f00;fill-opacity:1;fill-rule:nonzero;stroke:none"
           d="m 140.734,62.941 0.692,77.86 0,-77.996 -0.692,0 0,0.136 z" /><path
           id="path90"
           style="fill:#ff7f00;fill-opacity:1;fill-rule:nonzero;stroke:none"
           d="m 147.652,117.145 0,-54.34 0,54.34 z" /><path
           id="path92"
           style="fill:#ff7f00;fill-opacity:1;fill-rule:nonzero;stroke:none"
           d="m 162.871,119.801 0.691,-25.879 0,-31.117 -0.691,0 0,56.996 z" /><path
           id="path94"
           style="fill:#ff7f00;fill-opacity:1;fill-rule:nonzero;stroke:none"
           d="m 171.172,122.461 0.691,-59.57 0.692,27.218 0.691,-5.132 0.692,-3.434 0.691,8.141 0,-26.879 -0.691,0 -0.692,0 -0.691,0 -0.692,0 -0.691,0 0,59.656 z" /><path
           id="path96"
           style="fill:#ff7f00;fill-opacity:1;fill-rule:nonzero;stroke:none"
           d="m 178.781,321.383 0.692,-86.149 0.691,-76.164 0,-96.265 -0.691,0 -0.692,0 0,258.578 z" /><path
           id="path98"
           style="fill:#ff7f00;fill-opacity:1;fill-rule:nonzero;stroke:none"
           d="m 183.625,105.5 0.691,131.688 0,-174.383 -0.691,0 0,42.695 z" /><path
           id="path100"
           style="fill:#ff7f00;fill-opacity:1;fill-rule:nonzero;stroke:none"
           d="m 188.465,68.254 0.691,80.723 0.692,-58.172 0,-28 -0.692,0 -0.691,0 0,5.449 z" /><path
           id="path102"
           style="fill:#ff7f00;fill-opacity:1;fill-rule:nonzero;stroke:none"
           d="m 197.457,197.176 0.691,-87.977 0,-46.394 -0.691,0 0,134.371 z" /><path
           id="path104"
           style="fill:#ff7f00;fill-opacity:1;fill-rule:nonzero;stroke:none"
           d="m 218.211,95.203 0.691,5.914 0,-38.312 -0.691,0 0,32.398 z" /><path
           id="path106"
           style="fill:#ff7f00;fill-opacity:1;fill-rule:nonzero;stroke:none"
           d="m 227.203,80.742 0.692,79.238 0,-97.175 -0.692,0 0,17.937 z" /><path
           id="path108"
           style="fill:#ff7f00;fill-opacity:1;fill-rule:nonzero;stroke:none"
           d="m 348.949,94.125 0,-31.32 0,31.32 z" /><path
           id="path110"
           style="fill:#ff7f00;fill-opacity:1;fill-rule:nonzero;stroke:none"
           d="m 351.023,137.109 0.692,-52.976 0,-21.328 -0.692,0 0,74.304 z" /><path
           id="path112"
           style="fill:#ff7f00;fill-opacity:1;fill-rule:nonzero;stroke:none"
           d="m 392.527,300.832 0.692,-230.34 0,-7.687 -0.692,0 0,238.027 z" /><path
           id="path114"
           style="fill:#ff7f00;fill-opacity:1;fill-rule:nonzero;stroke:none"
           d="m 402.211,154.133 0.695,-19.477 0.692,29.848 0,-101.699 -0.692,0 -0.695,0 0,91.328 z" /><path
           id="path116"
           style="fill:#ff7f00;fill-opacity:1;fill-rule:nonzero;stroke:none"
           d="m 413.281,89.047 0.692,20.297 0,-46.539 -0.692,0 0,26.242 z" /><path
           id="path118"
           style="fill:#ff7f00;fill-opacity:1;fill-rule:nonzero;stroke:none"
           d="m 432.648,97.918 0.692,21.715 0,-56.828 -0.692,0 0,35.113 z" /><path
           id="path120"
           style="fill:#ff7f00;fill-opacity:1;fill-rule:nonzero;stroke:none"
           d="m 437.492,68.852 0.692,1.168 0,-7.215 -0.692,0 0,6.047 z" /><path
           id="path122"
           style="fill:#ff7f00;fill-opacity:1;fill-rule:nonzero;stroke:none"
           d="m 440.949,90.113 0.692,-26.801 0,-0.507 -0.692,0 0,27.308 z" /><path
           id="path124"
           style="fill:#ff7f00;fill-opacity:1;fill-rule:nonzero;stroke:none"
           d="m 450.633,94.27 0.695,-18.848 0,-12.617 -0.695,0 0,31.465 z" /><path
           id="path126"
           style="fill:#ff7f00;fill-opacity:1;fill-rule:nonzero;stroke:none"
           d="m 465.852,130.859 0.691,-62.718 0,-5.336 -0.691,0 0,68.054 z" /><path
           id="path128"
           style="fill:#ff7f00;fill-opacity:1;fill-rule:nonzero;stroke:none"
           d="m 472.77,67.059 0.691,42.617 0.691,47.953 0.692,67.945 0,-162.769 -0.692,0 -0.691,0 -0.691,0 0,4.254 z" /><path
           id="path130"
           style="fill:#ff7f00;fill-opacity:1;fill-rule:nonzero;stroke:none"
           d="m 486.605,69.48 0.692,24.993 0.691,69.375 0,-101.043 -0.691,0 -0.692,0 0,6.675 z" /><path
           id="path132"
           style="fill:#ff7f00;fill-opacity:1;fill-rule:nonzero;stroke:none"
           d="m 525.344,282.938 0.691,67.874 0,-288.007 -0.691,0 0,220.133 z" /><path
           id="path134"
           style="fill:#ff7f00;fill-opacity:1;fill-rule:nonzero;stroke:none"
           d="m 540.559,150.852 0.695,13.718 0.691,6.157 0,-107.922 -0.691,0 -0.695,0 0,88.047 z" /><path
           id="path136"
           style="fill:#ff7f00;fill-opacity:1;fill-rule:nonzero;stroke:none"
           d="m 546.094,97.871 0.691,45.137 0,-80.203 -0.691,0 0,35.066 z" /><path
           id="path138"
           style="fill:#ff7f00;fill-opacity:1;fill-rule:nonzero;stroke:none"
           d="m 552.32,103.77 0,-40.965 0,40.965 z" /><path
           id="path140"
           style="fill:#ff7f00;fill-opacity:1;fill-rule:nonzero;stroke:none"
           d="m 559.93,90.82 0.691,5.602 0,-33.617 -0.691,0 0,28.015 z" /><path
           id="path142"
           style="fill:#ff7f00;fill-opacity:1;fill-rule:nonzero;stroke:none"
           d="m 574.457,102.98 0.691,-17.105 0.692,3.207 0.691,77.461 0,-103.738 -0.691,0 -0.692,0 -0.691,0 0,40.175 z" /><path
           id="path144"
           style="fill:#ff7f00;fill-opacity:1;fill-rule:nonzero;stroke:none"
           d="m 579.297,137.391 0.691,-72.918 0,-1.668 -0.691,0 0,74.586 z" /><path
           id="path146"
           style="fill:#ff7f00;fill-opacity:1;fill-rule:nonzero;stroke:none"
           d="m 597.977,102.844 0.691,-15.106 0,-24.933 -0.691,0 0,40.039 z" /><path
           id="path148"
           style="fill:#ff7f00;fill-opacity:1;fill-rule:nonzero;stroke:none"
           d="m 611.809,228.852 0,-166.047 0,166.047 z" /><path
           id="path150"
           style="fill:#ff7f00;fill-opacity:1;fill-rule:nonzero;stroke:none"
           d="m 653.312,110.273 0.692,17.879 0,-65.347 -0.692,0 0,47.468 z" /><path
           id="path152"
           style="fill:#ff7f00;fill-opacity:1;fill-rule:nonzero;stroke:none"
           d="m 656.773,96.422 0.692,21.09 0,-54.707 -0.692,0 0,33.617 z" /><path
           id="path154"
           style="fill:#ff7f00;fill-opacity:1;fill-rule:nonzero;stroke:none"
           d="m 728.715,143.363 0,-80.558 0,80.558 z" /><path
           id="path156"
           style="fill:#ff7f00;fill-opacity:1;fill-rule:nonzero;stroke:none"
           d="m 732.863,82.707 0.692,-0.535 0,-19.367 -0.692,0 0,19.902 z" /><path
           id="path158"
           style="fill:#ff7f00;fill-opacity:1;fill-rule:nonzero;stroke:none"
           d="m 743.93,102.871 0.695,36.899 0,-76.965 -0.695,0 0,40.066 z" /><path
           id="path160"
           style="fill:#ff7f00;fill-opacity:1;fill-rule:nonzero;stroke:none"
           d="m 775.059,151.422 0.691,-58.238 0,-30.379 -0.691,0 0,88.617 z" /><path
           id="path162"
           style="fill:#ff7f00;fill-opacity:1;fill-rule:nonzero;stroke:none"
           d="m 777.828,208.188 0.692,-69.563 0,-75.82 -0.692,0 0,145.383 z" /><path
           id="path164"
           style="fill:#ff7f00;fill-opacity:1;fill-rule:nonzero;stroke:none"
           d="m 828.324,85.516 0.692,67.695 0,-90.406 -0.692,0 0,22.711 z" /><path
           id="path166"
           style="fill:#ff7f00;fill-opacity:1;fill-rule:nonzero;stroke:none"
           d="m 849.77,146.941 0.691,-14.941 0,-69.195 -0.691,0 0,84.136 z" /><path
           id="path168"
           style="fill:#ff7f00;fill-opacity:1;fill-rule:nonzero;stroke:none"
           d="m 862.219,105.664 0.691,-10.156 0.692,-29.039 0,-3.664 -0.692,0 -0.691,0 0,42.859 z" /><path
           id="path170"
           style="fill:#ff7f00;fill-opacity:1;fill-rule:nonzero;stroke:none"
           d="m 867.062,119.113 0.692,-49.008 0.691,7.055 0.692,40.692 0,-55.047 -0.692,0 -0.691,0 -0.692,0 0,56.308 z" /><path
           id="path172"
           style="fill:#ff7f00;fill-opacity:1;fill-rule:nonzero;stroke:none"
           d="m 876.746,117.828 0.692,-29.285 0.691,-16.977 0.691,6.176 0,-14.937 -0.691,0 -0.691,0 -0.692,0 0,55.023 z" /><path
           id="path174"
           style="fill:#ff7f00;fill-opacity:1;fill-rule:nonzero;stroke:none"
           d="m 901.648,69.16 0.692,-1.816 0,-4.539 -0.692,0 0,6.355 z" /><path
           id="path176"
           style="fill:#ff7f00;fill-opacity:1;fill-rule:nonzero;stroke:none"
           d="m 938.309,232.168 0.691,-90.785 0,-78.578 -0.691,0 0,169.363 z" /><path
           id="path178"
           style="fill:#ff7f00;fill-opacity:1;fill-rule:nonzero;stroke:none"
           d="m 1015.785,63.754 0.692,73.023 0,-73.972 -0.692,0 0,0.949 z" /><path
           id="path180"
           style="fill:#ff7f00;fill-opacity:1;fill-rule:nonzero;stroke:none"
           d="m 1033.078,145.16 0.692,-61.633 0,-20.722 -0.692,0 0,82.355 z" /><path
           id="path182"
           style="fill:#ff7f00;fill-opacity:1;fill-rule:nonzero;stroke:none"
           d="m 1041.379,73.105 0.691,0.567 0,-10.867 -0.691,0 0,10.3 z" /><path
           id="path184"
           style="fill:#ff7f00;fill-opacity:1;fill-rule:nonzero;stroke:none"
           d="m 1049.68,73.727 0,-10.922 0,10.922 z" /><path
           id="path186"
           style="fill:#ff7f00;fill-opacity:1;fill-rule:nonzero;stroke:none"
           d="m 1069.047,70.203 0.695,24.758 0,-32.156 -0.695,0 0,7.398 z" /><path
           id="path188"
           style="fill:#ff7f00;fill-opacity:1;fill-rule:nonzero;stroke:none"
           d="m 1071.816,91.348 0.692,0.394 0,-28.937 -0.692,0 0,28.543 z" /><path
           id="path190"
           style="fill:#ff7f00;fill-opacity:1;fill-rule:nonzero;stroke:none"
           d="m 1080.117,70.652 0.692,38.055 0,-45.902 -0.692,0 0,7.847 z" /><path
           id="path192"
           style="fill:#fdbf6f;fill-opacity:1;fill-rule:nonzero;stroke:none"
           d="m 364.859,227.215 0.692,-35.215 0,-129.195 -0.692,0 0,164.41 z" /><path
           id="path194"
           style="fill:#33a02c;fill-opacity:1;fill-rule:nonzero;stroke:none"
           d="m 237.578,86.723 0.692,-14.953 0.691,54.546 0.691,-14.339 0,-49.172 -0.691,0 -0.691,0 -0.692,0 0,23.918 z" /><path
           id="path196"
           style="fill:#33a02c;fill-opacity:1;fill-rule:nonzero;stroke:none"
           d="m 243.113,87.453 0.692,-19.582 0.691,2.391 0.692,15.769 0.691,4.719 0,-27.945 -0.691,0 -0.692,0 -0.691,0 -0.692,0 0,24.648 z" /><path
           id="path198"
           style="fill:#33a02c;fill-opacity:1;fill-rule:nonzero;stroke:none"
           d="m 247.953,144.238 0.695,-46.347 0.692,85.425 0.691,-50.144 0,-70.367 -0.691,0 -0.692,0 -0.695,0 0,81.433 z" /><path
           id="path200"
           style="fill:#33a02c;fill-opacity:1;fill-rule:nonzero;stroke:none"
           d="m 252.105,126.984 0.692,51.59 0.691,8.219 0,-123.988 -0.691,0 -0.692,0 0,64.179 z" /><path
           id="path202"
           style="fill:#33a02c;fill-opacity:1;fill-rule:nonzero;stroke:none"
           d="m 255.562,83.277 0.696,148.688 0.691,-19.988 0.692,-63.891 0.691,2.332 0.691,2.375 0.692,10.504 0.691,13.949 0.692,-27.574 0.691,6.719 0.691,-25.868 0.692,-52.453 0.691,-9.754 0.696,0 0.691,33.563 0.691,0 0.692,40.316 0.691,65.266 0.692,-3.5 0.691,-59.023 0.691,-52.403 0.692,37.602 0.691,6.91 0.692,0.223 0.691,-29.661 0,-44.804 -0.691,0 -0.692,0 -0.691,0 -0.692,0 -0.691,0 -0.691,0 -0.692,0 -0.691,0 -0.692,0 -0.691,0 -0.691,0 -0.696,0 -0.691,0 -0.692,0 -0.691,0 -0.691,0 -0.692,0 -0.691,0 -0.692,0 -0.691,0 -0.691,0 -0.692,0 -0.691,0 -0.696,0 0,20.472 z" /><path
           id="path204"
           style="fill:#33a02c;fill-opacity:1;fill-rule:nonzero;stroke:none"
           d="m 274.242,264.035 0.692,-69.465 0.691,-83.695 0.691,45.5 0.692,84.559 0.691,-135.414 0.692,20.378 0.691,60.821 0.691,-36.969 0.692,-19.031 0.695,56.984 0.692,58.367 0.691,-50.742 0.691,-98.191 0.692,112.457 0.691,85.758 0.692,-28.079 0.691,-135.437 0.691,-26.832 0.692,124.367 0.691,0.242 0.696,49.985 0.691,41.894 0.691,-37.14 0.692,-108.457 0.691,282.945 0.692,61.512 0.691,32.468 0.691,-137.648 0.692,-146.719 0.691,-121.148 0.692,13.3 0.691,192.602 0,-290.402 -0.691,0 -0.692,0 -0.691,0 -0.692,0 -0.691,0 -0.691,0 -0.692,0 -0.691,0 -0.692,0 -0.691,0 -0.691,0 -0.696,0 -0.691,0 -0.692,0 -0.691,0 -0.691,0 -0.692,0 -0.691,0 -0.692,0 -0.691,0 -0.691,0 -0.692,0 -0.695,0 -0.692,0 -0.691,0 -0.691,0 -0.692,0 -0.691,0 -0.692,0 -0.691,0 -0.691,0 -0.692,0 0,201.23 z" /><path
           id="path206"
           style="fill:#33a02c;fill-opacity:1;fill-rule:nonzero;stroke:none"
           d="m 298.453,207.875 0.692,56.172 0.691,18.797 0.691,-111.184 0.692,-43.133 0.691,-20.203 0.692,-23.406 0.691,-20.785 0.691,24.488 0,-25.816 -0.691,0 -0.691,0 -0.692,0 -0.691,0 -0.692,0 -0.691,0 -0.691,0 -0.692,0 0,145.07 z" /><path
           id="path208"
           style="fill:#33a02c;fill-opacity:1;fill-rule:nonzero;stroke:none"
           d="m 306.062,103.836 0,-41.031 0,41.031 z" /><path
           id="path210"
           style="fill:#33a02c;fill-opacity:1;fill-rule:nonzero;stroke:none"
           d="m 309.52,86.391 0,-23.586 0,23.586 z" /><path
           id="path212"
           style="fill:#33a02c;fill-opacity:1;fill-rule:nonzero;stroke:none"
           d="m 311.594,188.684 0.691,58.281 0.692,58.551 0.695,16.8 0.691,41.536 0.692,-50.094 0.691,-167.996 0.692,-50.043 0.691,-9.778 0.691,51.161 0.692,22.238 0.691,-36.973 0.692,-38.519 0.691,6.16 0.695,-26.867 0.692,22.39 0.691,339.922 0.691,31.055 0.692,-40.735 0.691,-246.953 0.692,-55.394 0.691,-33.629 0.691,1.758 0.692,9.91 0.691,135.152 0.692,-35.422 0.695,-87.863 0.691,-35.945 0.692,14.992 0.691,12.379 0.692,2.859 0.691,-26.043 0.691,15.031 0.692,-3.515 0.691,-1.383 0.692,11.598 0.691,28.234 0.692,27.188 0.695,-22.118 0.691,-38.261 0.692,37.191 0.691,38.203 0.691,-47.14 0.692,18.25 0.691,-23.875 0.692,16.617 0.691,-6.055 0.691,-38.359 0.692,-8.047 0.691,0.191 0.696,30.914 0.691,-35.14 0.691,102.972 0,-111.265 -0.691,0 -0.691,0 -0.696,0 -0.691,0 -0.692,0 -0.691,0 -0.691,0 -0.692,0 -0.691,0 -0.692,0 -0.691,0 -0.691,0 -0.692,0 -0.691,0 -0.695,0 -0.692,0 -0.691,0 -0.692,0 -0.691,0 -0.692,0 -0.691,0 -0.691,0 -0.692,0 -0.691,0 -0.692,0 -0.691,0 -0.695,0 -0.692,0 -0.691,0 -0.692,0 -0.691,0 -0.691,0 -0.692,0 -0.691,0 -0.692,0 -0.691,0 -0.691,0 -0.692,0 -0.695,0 -0.691,0 -0.692,0 -0.691,0 -0.692,0 -0.691,0 -0.691,0 -0.692,0 -0.691,0 -0.692,0 -0.691,0 -0.695,0 -0.692,0 -0.691,0 0,125.879 z" /><path
           id="path214"
           style="fill:#33a02c;fill-opacity:1;fill-rule:nonzero;stroke:none"
           d="m 947.996,188.781 0.692,39.946 0.691,47.203 0.691,-1.77 0,-211.355 -0.691,0 -0.691,0 -0.692,0 0,125.976 z" /><path
           id="path216"
           style="fill:#1f78b4;fill-opacity:1;fill-rule:nonzero;stroke:none"
           d="m 97.848,167.07 0,-104.265 0,104.265 z" /><path
           id="path218"
           style="fill:#1f78b4;fill-opacity:1;fill-rule:nonzero;stroke:none"
           d="m 99.922,95.812 0.691,-14.015 0,-18.992 -0.691,0 0,33.007 z" /><path
           id="path220"
           style="fill:#1f78b4;fill-opacity:1;fill-rule:nonzero;stroke:none"
           d="m 118.602,104.953 0,-42.148 0,42.148 z" /><path
           id="path222"
           style="fill:#1f78b4;fill-opacity:1;fill-rule:nonzero;stroke:none"
           d="m 130.359,98.004 0.692,-27.438 0,-7.761 -0.692,0 0,35.199 z" /><path
           id="path224"
           style="fill:#1f78b4;fill-opacity:1;fill-rule:nonzero;stroke:none"
           d="m 145.578,67.656 0.692,22.028 0,-26.879 -0.692,0 0,4.851 z" /><path
           id="path226"
           style="fill:#1f78b4;fill-opacity:1;fill-rule:nonzero;stroke:none"
           d="m 149.727,209.617 0.695,16.664 0,-163.476 -0.695,0 0,146.812 z" /><path
           id="path228"
           style="fill:#1f78b4;fill-opacity:1;fill-rule:nonzero;stroke:none"
           d="m 165.637,97.266 0.691,-32.528 0,-1.933 -0.691,0 0,34.461 z" /><path
           id="path230"
           style="fill:#1f78b4;fill-opacity:1;fill-rule:nonzero;stroke:none"
           d="m 202.992,91.082 0.692,2.477 0,-30.754 -0.692,0 0,28.277 z" /><path
           id="path232"
           style="fill:#1f78b4;fill-opacity:1;fill-rule:nonzero;stroke:none"
           d="m 210.602,234.008 0.691,-165.785 0,-5.418 -0.691,0 0,171.203 z" /><path
           id="path234"
           style="fill:#1f78b4;fill-opacity:1;fill-rule:nonzero;stroke:none"
           d="m 216.828,98.961 0,-36.156 0,36.156 z" /><path
           id="path236"
           style="fill:#1f78b4;fill-opacity:1;fill-rule:nonzero;stroke:none"
           d="m 223.746,93.453 0.692,-21.207 0,-9.441 -0.692,0 0,30.648 z" /><path
           id="path238"
           style="fill:#1f78b4;fill-opacity:1;fill-rule:nonzero;stroke:none"
           d="m 230.66,127.664 0.692,-45.16 0,-19.699 -0.692,0 0,64.859 z" /><path
           id="path240"
           style="fill:#1f78b4;fill-opacity:1;fill-rule:nonzero;stroke:none"
           d="m 233.43,63.516 0.691,105.785 0,-106.496 -0.691,0 0,0.711 z" /><path
           id="path242"
           style="fill:#1f78b4;fill-opacity:1;fill-rule:nonzero;stroke:none"
           d="m 236.195,101.344 0.692,18.062 0,-56.601 -0.692,0 0,38.539 z" /><path
           id="path244"
           style="fill:#1f78b4;fill-opacity:1;fill-rule:nonzero;stroke:none"
           d="m 352.406,144.832 0.692,103.051 0,-185.078 -0.692,0 0,82.027 z" /><path
           id="path246"
           style="fill:#1f78b4;fill-opacity:1;fill-rule:nonzero;stroke:none"
           d="m 377.309,66.941 0.691,6.204 0.695,99.695 0.692,-32.223 0,-77.812 -0.692,0 -0.695,0 -0.691,0 0,4.136 z" /><path
           id="path248"
           style="fill:#1f78b4;fill-opacity:1;fill-rule:nonzero;stroke:none"
           d="m 393.91,124.605 0.695,-50.347 0,-11.453 -0.695,0 0,61.8 z" /><path
           id="path250"
           style="fill:#1f78b4;fill-opacity:1;fill-rule:nonzero;stroke:none"
           d="m 396.68,113.93 0.691,-15.86 0,-35.265 -0.691,0 0,51.125 z" /><path
           id="path252"
           style="fill:#1f78b4;fill-opacity:1;fill-rule:nonzero;stroke:none"
           d="m 427.117,62.836 0.692,18.074 0,-18.105 -0.692,0 0,0.031 z" /><path
           id="path254"
           style="fill:#1f78b4;fill-opacity:1;fill-rule:nonzero;stroke:none"
           d="m 481.07,67.508 0.692,98.758 0.691,-16.68 0.692,48.363 0,-135.144 -0.692,0 -0.691,0 -0.692,0 0,4.703 z" /><path
           id="path256"
           style="fill:#1f78b4;fill-opacity:1;fill-rule:nonzero;stroke:none"
           d="m 501.133,154.73 0.691,17.735 0,-109.66 -0.691,0 0,91.925 z" /><path
           id="path258"
           style="fill:#1f78b4;fill-opacity:1;fill-rule:nonzero;stroke:none"
           d="m 505.281,104.23 0.692,22.528 0.691,-7.578 0.691,42.09 0,-98.465 -0.691,0 -0.691,0 -0.692,0 0,41.425 z" /><path
           id="path260"
           style="fill:#1f78b4;fill-opacity:1;fill-rule:nonzero;stroke:none"
           d="m 511.508,119.809 0.691,-32.196 0,-24.808 -0.691,0 0,57.004 z" /><path
           id="path262"
           style="fill:#1f78b4;fill-opacity:1;fill-rule:nonzero;stroke:none"
           d="m 523.957,63.18 0.695,128.117 0,-128.492 -0.695,0 0,0.375 z" /><path
           id="path264"
           style="fill:#1f78b4;fill-opacity:1;fill-rule:nonzero;stroke:none"
           d="m 539.176,156.574 0,-93.769 0,93.769 z" /><path
           id="path266"
           style="fill:#1f78b4;fill-opacity:1;fill-rule:nonzero;stroke:none"
           d="m 548.863,68.109 0.692,4.09 0,-9.394 -0.692,0 0,5.304 z" /><path
           id="path268"
           style="fill:#1f78b4;fill-opacity:1;fill-rule:nonzero;stroke:none"
           d="m 553.703,157.07 0,-94.265 0,94.265 z" /><path
           id="path270"
           style="fill:#1f78b4;fill-opacity:1;fill-rule:nonzero;stroke:none"
           d="m 556.469,95.328 0.695,9.402 0,-41.925 -0.695,0 0,32.523 z" /><path
           id="path272"
           style="fill:#1f78b4;fill-opacity:1;fill-rule:nonzero;stroke:none"
           d="m 573.07,85.23 0,-22.425 0,22.425 z" /><path
           id="path274"
           style="fill:#1f78b4;fill-opacity:1;fill-rule:nonzero;stroke:none"
           d="m 593.133,79.594 0.691,0.64 0,-17.429 -0.691,0 0,16.789 z" /><path
           id="path276"
           style="fill:#1f78b4;fill-opacity:1;fill-rule:nonzero;stroke:none"
           d="m 602.125,62.848 0.691,20.289 0,-20.332 -0.691,0 0,0.043 z" /><path
           id="path278"
           style="fill:#1f78b4;fill-opacity:1;fill-rule:nonzero;stroke:none"
           d="m 609.734,89.035 0.692,7.656 0,-33.886 -0.692,0 0,26.23 z" /><path
           id="path280"
           style="fill:#1f78b4;fill-opacity:1;fill-rule:nonzero;stroke:none"
           d="m 637.402,85.551 0.692,-21.281 0,-1.465 -0.692,0 0,22.746 z" /><path
           id="path282"
           style="fill:#1f78b4;fill-opacity:1;fill-rule:nonzero;stroke:none"
           d="m 647.09,63.242 0.691,90.551 0,-90.988 -0.691,0 0,0.437 z" /><path
           id="path284"
           style="fill:#1f78b4;fill-opacity:1;fill-rule:nonzero;stroke:none"
           d="m 660.922,76.461 0.691,8.793 0,-22.449 -0.691,0 0,13.656 z" /><path
           id="path286"
           style="fill:#1f78b4;fill-opacity:1;fill-rule:nonzero;stroke:none"
           d="m 672.684,68.84 0.691,-3.367 0.691,123.929 0,-126.597 -0.691,0 -0.691,0 0,6.035 z" /><path
           id="path288"
           style="fill:#1f78b4;fill-opacity:1;fill-rule:nonzero;stroke:none"
           d="m 680.984,74.691 0.692,-7.57 0,-4.316 -0.692,0 0,11.886 z" /><path
           id="path290"
           style="fill:#1f78b4;fill-opacity:1;fill-rule:nonzero;stroke:none"
           d="m 683.75,72.113 0.691,63.449 0,-72.757 -0.691,0 0,9.308 z" /><path
           id="path292"
           style="fill:#1f78b4;fill-opacity:1;fill-rule:nonzero;stroke:none"
           d="m 709.344,179.57 0.691,-40.207 0,-76.558 -0.691,0 0,116.765 z" /><path
           id="path294"
           style="fill:#1f78b4;fill-opacity:1;fill-rule:nonzero;stroke:none"
           d="m 751.539,73.828 0.695,12.793 0,-23.816 -0.695,0 0,11.023 z" /><path
           id="path296"
           style="fill:#1f78b4;fill-opacity:1;fill-rule:nonzero;stroke:none"
           d="m 790.277,72.656 0.692,-3.097 0,-6.754 -0.692,0 0,9.851 z" /><path
           id="path298"
           style="fill:#1f78b4;fill-opacity:1;fill-rule:nonzero;stroke:none"
           d="m 807.57,114.719 0.692,-37.297 0,-14.617 -0.692,0 0,51.914 z" /><path
           id="path300"
           style="fill:#1f78b4;fill-opacity:1;fill-rule:nonzero;stroke:none"
           d="m 820.715,79.969 0.691,8.898 0,-26.062 -0.691,0 0,17.164 z" /><path
           id="path302"
           style="fill:#1f78b4;fill-opacity:1;fill-rule:nonzero;stroke:none"
           d="m 825.559,64.145 0.691,6.316 0,-7.656 -0.691,0 0,1.34 z" /><path
           id="path304"
           style="fill:#1f78b4;fill-opacity:1;fill-rule:nonzero;stroke:none"
           d="m 853.918,162.051 0.691,-30.52 0,-68.726 -0.691,0 0,99.246 z" /><path
           id="path306"
           style="fill:#1f78b4;fill-opacity:1;fill-rule:nonzero;stroke:none"
           d="m 860.145,112.152 0.691,-2.238 0,-47.109 -0.691,0 0,49.347 z" /><path
           id="path308"
           style="fill:#1f78b4;fill-opacity:1;fill-rule:nonzero;stroke:none"
           d="m 895.422,152.684 0.691,-29.641 0,-60.238 -0.691,0 0,89.879 z" /><path
           id="path310"
           style="fill:#1f78b4;fill-opacity:1;fill-rule:nonzero;stroke:none"
           d="m 898.883,72.566 0.691,57.004 0.692,-43.882 0,-22.883 -0.692,0 -0.691,0 0,9.761 z" /><path
           id="path312"
           style="fill:#1f78b4;fill-opacity:1;fill-rule:nonzero;stroke:none"
           d="m 921.016,107.098 0.691,148.757 0,-193.05 -0.691,0 0,44.293 z" /><path
           id="path314"
           style="fill:#1f78b4;fill-opacity:1;fill-rule:nonzero;stroke:none"
           d="m 942.461,180.965 0.691,25.414 0.692,1.453 0.691,-80.348 0,-64.679 -0.691,0 -0.692,0 -0.691,0 0,118.16 z" /><path
           id="path316"
           style="fill:#1f78b4;fill-opacity:1;fill-rule:nonzero;stroke:none"
           d="m 946.609,83.977 0.692,10.171 0,-31.343 -0.692,0 0,21.172 z" /><path
           id="path318"
           style="fill:#1f78b4;fill-opacity:1;fill-rule:nonzero;stroke:none"
           d="m 1001.949,115.504 0.692,26.75 0,-79.449 -0.692,0 0,52.699 z" /><path
           id="path320"
           style="fill:#1f78b4;fill-opacity:1;fill-rule:nonzero;stroke:none"
           d="m 1051.062,124.5 0,-61.695 0,61.695 z" /><path
           id="path322"
           style="fill:#1f78b4;fill-opacity:1;fill-rule:nonzero;stroke:none"
           d="m 1061.441,168.672 0.692,-49.395 0,-56.472 -0.692,0 0,105.867 z" /><path
           id="path324"
           style="fill:#1f78b4;fill-opacity:1;fill-rule:nonzero;stroke:none"
           d="m 1078.734,88.484 0.692,-16.132 0,-9.547 -0.692,0 0,25.679 z" /><path
           id="path326"
           style="fill:#6a3d9a;fill-opacity:1;fill-rule:nonzero;stroke:none"
           d="m 98.539,87.082 0,-24.277 0,24.277 z" /><path
           id="path328"
           style="fill:#6a3d9a;fill-opacity:1;fill-rule:nonzero;stroke:none"
           d="m 104.074,95.762 0.692,115.457 0,-148.414 -0.692,0 0,32.957 z" /><path
           id="path330"
           style="fill:#6a3d9a;fill-opacity:1;fill-rule:nonzero;stroke:none"
           d="m 109.605,88.184 0.696,100.73 0,-126.109 -0.696,0 0,25.379 z" /><path
           id="path332"
           style="fill:#6a3d9a;fill-opacity:1;fill-rule:nonzero;stroke:none"
           d="m 117.91,89.66 0,-26.855 0,26.855 z" /><path
           id="path334"
           style="fill:#6a3d9a;fill-opacity:1;fill-rule:nonzero;stroke:none"
           d="m 129.668,81.152 0,-18.347 0,18.347 z" /><path
           id="path336"
           style="fill:#6a3d9a;fill-opacity:1;fill-rule:nonzero;stroke:none"
           d="m 146.961,88.703 0,-25.898 0,25.898 z" /><path
           id="path338"
           style="fill:#6a3d9a;fill-opacity:1;fill-rule:nonzero;stroke:none"
           d="m 205.066,66.836 0.692,6.109 0,-10.14 -0.692,0 0,4.031 z" /><path
           id="path340"
           style="fill:#6a3d9a;fill-opacity:1;fill-rule:nonzero;stroke:none"
           d="m 217.52,91.609 0,-28.804 0,28.804 z" /><path
           id="path342"
           style="fill:#6a3d9a;fill-opacity:1;fill-rule:nonzero;stroke:none"
           d="m 240.348,104.688 0.691,22.242 0.691,140.672 0.692,-176.758 0,-28.039 -0.692,0 -0.691,0 -0.691,0 0,41.883 z" /><path
           id="path344"
           style="fill:#6a3d9a;fill-opacity:1;fill-rule:nonzero;stroke:none"
           d="m 246.57,68.754 0.692,60.402 0,-66.351 -0.692,0 0,5.949 z" /><path
           id="path346"
           style="fill:#6a3d9a;fill-opacity:1;fill-rule:nonzero;stroke:none"
           d="m 250.723,161.105 0.691,37.27 0,-135.57 -0.691,0 0,98.3 z" /><path
           id="path348"
           style="fill:#6a3d9a;fill-opacity:1;fill-rule:nonzero;stroke:none"
           d="m 254.18,65.141 0.691,16.195 0,-18.531 -0.691,0 0,2.336 z" /><path
           id="path350"
           style="fill:#6a3d9a;fill-opacity:1;fill-rule:nonzero;stroke:none"
           d="m 272.859,147.5 0.692,39.32 0,-124.015 -0.692,0 0,84.695 z" /><path
           id="path352"
           style="fill:#6a3d9a;fill-opacity:1;fill-rule:nonzero;stroke:none"
           d="m 297.07,338.383 0.692,-65.399 0,-210.179 -0.692,0 0,275.578 z" /><path
           id="path354"
           style="fill:#6a3d9a;fill-opacity:1;fill-rule:nonzero;stroke:none"
           d="m 304.676,92.715 0.695,5.422 0,-35.332 -0.695,0 0,29.91 z" /><path
           id="path356"
           style="fill:#6a3d9a;fill-opacity:1;fill-rule:nonzero;stroke:none"
           d="m 306.754,106.867 0.691,-16.32 0.692,-19.414 0.691,12.285 0,-20.613 -0.691,0 -0.692,0 -0.691,0 0,44.062 z" /><path
           id="path358"
           style="fill:#6a3d9a;fill-opacity:1;fill-rule:nonzero;stroke:none"
           d="m 310.211,68.355 0.691,36.813 0,-42.363 -0.691,0 0,5.55 z" /><path
           id="path360"
           style="fill:#6a3d9a;fill-opacity:1;fill-rule:nonzero;stroke:none"
           d="m 348.258,92.516 0,-29.711 0,29.711 z" /><path
           id="path362"
           style="fill:#6a3d9a;fill-opacity:1;fill-rule:nonzero;stroke:none"
           d="m 539.867,131.102 0,-68.297 0,68.297 z" /><path
           id="path364"
           style="fill:#6a3d9a;fill-opacity:1;fill-rule:nonzero;stroke:none"
           d="m 553.012,142.289 0,-79.484 0,79.484 z" /><path
           id="path366"
           style="fill:#6a3d9a;fill-opacity:1;fill-rule:nonzero;stroke:none"
           d="m 562.695,97.461 0.692,-16.598 0,-18.058 -0.692,0 0,34.656 z" /><path
           id="path368"
           style="fill:#6a3d9a;fill-opacity:1;fill-rule:nonzero;stroke:none"
           d="m 573.766,75.359 0,-12.554 0,12.554 z" /><path
           id="path370"
           style="fill:#6a3d9a;fill-opacity:1;fill-rule:nonzero;stroke:none"
           d="m 596.59,86.223 0.691,-15.59 0,-7.828 -0.691,0 0,23.418 z" /><path
           id="path372"
           style="fill:#6a3d9a;fill-opacity:1;fill-rule:nonzero;stroke:none"
           d="m 611.117,184.816 0,-122.011 0,122.011 z" /><path
           id="path374"
           style="fill:#6a3d9a;fill-opacity:1;fill-rule:nonzero;stroke:none"
           d="m 729.406,183.156 0.692,-57.312 0,-63.039 -0.692,0 0,120.351 z" /><path
           id="path376"
           style="fill:#6a3d9a;fill-opacity:1;fill-rule:nonzero;stroke:none"
           d="m 1050.371,70.543 0,-7.738 0,7.738 z" /><path
           id="path378"
           style="fill:none;stroke:#000000;stroke-width:1.41732299;stroke-linecap:butt;stroke-linejoin:round;stroke-miterlimit:10;stroke-dasharray:4, 4;stroke-dashoffset:0;stroke-opacity:1"
           d="m 1079.559,62.805 0,49.695" /><text
           id="text380"
           style="font-variant:normal;font-weight:normal;font-size:11.83858299px;font-family:'Nimbus Sans L';-inkscape-font-specification:NimbusSansL;writing-mode:lr-tb;fill:#000000;fill-opacity:1;fill-rule:nonzero;stroke:none"
           transform="matrix(1,0,0,-1,1061.457,120.60156)"><tspan
             id="tspan382"
             y="0"
             x="0 3.9422481 9.8615398 16.455631 23.037882 29.620134">rs6025</tspan></text>
<path
           id="path384"
           style="fill:#000000;fill-opacity:1;fill-rule:nonzero;stroke:none"
           d="m 1082.188,62.805 c 0,-3.504 -5.254,-3.504 -5.254,0 0,3.5 5.254,3.5 5.254,0" /></g></g><g
       id="g386"><g
         clip-path="url(#clipPath390)"
         id="g388"><text
           id="text394"
           style="font-variant:normal;font-weight:normal;font-size:10.10000038px;font-family:'Nimbus Sans L';-inkscape-font-specification:NimbusSansL;writing-mode:lr-tb;fill:#7f7f7f;fill-opacity:1;fill-rule:nonzero;stroke:none"
           transform="matrix(1,0,0,-1,27.664062,59.125)"><tspan
             id="tspan396"
             y="0"
             x="0">0</tspan><tspan
             id="tspan398"
             y="-105.97265"
             x="0">1</tspan><tspan
             id="tspan400"
             y="-211.94922"
             x="0">2</tspan><tspan
             id="tspan402"
             y="-317.92188"
             x="0">3</tspan><tspan
             id="tspan404"
             y="-423.89453"
             x="0">4</tspan></text>
</g></g><g
       id="g406"><g
         clip-path="url(#clipPath410)"
         id="g408"><path
           id="path414"
           style="fill:none;stroke:#7f7f7f;stroke-width:1.41732299;stroke-linecap:butt;stroke-linejoin:round;stroke-miterlimit:10;stroke-dasharray:none;stroke-opacity:1"
           d="m 36.113,62.805 4.25,0" /><path
           id="path416"
           style="fill:none;stroke:#7f7f7f;stroke-width:1.41732299;stroke-linecap:butt;stroke-linejoin:round;stroke-miterlimit:10;stroke-dasharray:none;stroke-opacity:1"
           d="m 36.113,168.777 4.25,0" /><path
           id="path418"
           style="fill:none;stroke:#7f7f7f;stroke-width:1.41732299;stroke-linecap:butt;stroke-linejoin:round;stroke-miterlimit:10;stroke-dasharray:none;stroke-opacity:1"
           d="m 36.113,274.754 4.25,0" /><path
           id="path420"
           style="fill:none;stroke:#7f7f7f;stroke-width:1.41732299;stroke-linecap:butt;stroke-linejoin:round;stroke-miterlimit:10;stroke-dasharray:none;stroke-opacity:1"
           d="m 36.113,380.727 4.25,0" /><path
           id="path422"
           style="fill:none;stroke:#7f7f7f;stroke-width:1.41732299;stroke-linecap:butt;stroke-linejoin:round;stroke-miterlimit:10;stroke-dasharray:none;stroke-opacity:1"
           d="m 36.113,486.699 4.25,0" /></g></g><g
       id="g424"><g
         clip-path="url(#clipPath428)"
         id="g426"><path
           id="path432"
           style="fill:none;stroke:#7f7f7f;stroke-width:1.41732299;stroke-linecap:butt;stroke-linejoin:round;stroke-miterlimit:10;stroke-dasharray:none;stroke-opacity:1"
           d="m 196.766,33.703 0,4.254" /><path
           id="path434"
           style="fill:none;stroke:#7f7f7f;stroke-width:1.41732299;stroke-linecap:butt;stroke-linejoin:round;stroke-miterlimit:10;stroke-dasharray:none;stroke-opacity:1"
           d="m 473.461,33.703 0,4.254" /><path
           id="path436"
           style="fill:none;stroke:#7f7f7f;stroke-width:1.41732299;stroke-linecap:butt;stroke-linejoin:round;stroke-miterlimit:10;stroke-dasharray:none;stroke-opacity:1"
           d="m 750.156,33.703 0,4.254" /><path
           id="path438"
           style="fill:none;stroke:#7f7f7f;stroke-width:1.41732299;stroke-linecap:butt;stroke-linejoin:round;stroke-miterlimit:10;stroke-dasharray:none;stroke-opacity:1"
           d="m 1026.852,33.703 0,4.254" /></g></g><g
       id="g440"><g
         clip-path="url(#clipPath444)"
         id="g442"><text
           id="text448"
           style="font-variant:normal;font-weight:normal;font-size:10.10000038px;font-family:'Nimbus Sans L';-inkscape-font-specification:NimbusSansL;writing-mode:lr-tb;fill:#7f7f7f;fill-opacity:1;fill-rule:nonzero;stroke:none"
           transform="matrix(1,0,0,-1,184.13672,23.507812)"><tspan
             id="tspan450"
             y="0"
             x="0 5.6156001 11.2211 16.8367 19.644501 276.69531 282.31091 287.91641 293.53201 296.33981 553.39062 559.00623 564.61169 570.22729 573.0351 830.08594 835.70154 841.30701 846.92261 849.73041">169.2169.3169.4169.5</tspan></text>
</g></g><g
       id="g452"><g
         clip-path="url(#clipPath456)"
         id="g454"><text
           id="text460"
           style="font-variant:normal;font-weight:normal;font-size:12.5px;font-family:'Nimbus Sans L';-inkscape-font-specification:NimbusSansL;writing-mode:lr-tb;fill:#000000;fill-opacity:1;fill-rule:nonzero;stroke:none"
           transform="matrix(1,0,0,-1,552.86328,10.800781)"><tspan
             id="tspan462"
             y="0"
             x="0 6.9499998 13.9 20.15 22.924999 26.4 29.174999 36.125 43.075001 46.549999 50.712502 61.125 68.074997">position(Mb)</tspan></text>
</g></g><g
       id="g464"><g
         clip-path="url(#clipPath468)"
         id="g466"><text
           id="text472"
           style="font-variant:normal;font-weight:normal;font-size:12.5px;font-family:'Standard Symbols L';-inkscape-font-specification:StandardSymbolsL;writing-mode:lr-tb;fill:#000000;fill-opacity:1;fill-rule:nonzero;stroke:none"
           transform="matrix(0,1,1,0,21.347656,286.42187)"><tspan
             id="tspan474"
             y="0"
             x="0"></tspan></text>
<text
           id="text476"
           style="font-variant:normal;font-weight:normal;font-size:12.5px;font-family:'Nimbus Sans L';-inkscape-font-specification:NimbusSansL;writing-mode:lr-tb;fill:#000000;fill-opacity:1;fill-rule:nonzero;stroke:none"
           transform="matrix(0,1,1,0,21.347656,291.28437)"><tspan
             id="tspan478"
             y="0"
             x="0 2.7750001 9.7250004">log</tspan></text>
<text
           id="text480"
           style="font-variant:normal;font-weight:normal;font-size:8.89999962px;font-family:'Nimbus Sans L';-inkscape-font-specification:NimbusSansL;writing-mode:lr-tb;fill:#000000;fill-opacity:1;fill-rule:nonzero;stroke:none"
           transform="matrix(0,1,1,0,23.636719,307.95703)"><tspan
             id="tspan482"
             y="0"
             x="0 4.9484">10</tspan></text>
<text
           id="text484"
           style="font-variant:normal;font-weight:normal;font-size:15.5px;font-family:'Standard Symbols L';-inkscape-font-specification:StandardSymbolsL;writing-mode:lr-tb;fill:#000000;fill-opacity:1;fill-rule:nonzero;stroke:none"
           transform="matrix(0,1,1,0,21.347656,317.86328)"><tspan
             id="tspan486"
             y="0"
             x="0">(</tspan></text>
<text
           id="text488"
           style="font-variant:normal;font-weight:normal;font-size:12.5px;font-family:'Nimbus Sans L';-inkscape-font-specification:NimbusSansL;writing-mode:lr-tb;fill:#000000;fill-opacity:1;fill-rule:nonzero;stroke:none"
           transform="matrix(0,1,1,0,21.347656,323.02344)"><tspan
             id="tspan490"
             y="0"
             x="0">p</tspan></text>
<text
           id="text492"
           style="font-variant:normal;font-weight:normal;font-size:15.5px;font-family:'Standard Symbols L';-inkscape-font-specification:StandardSymbolsL;writing-mode:lr-tb;fill:#000000;fill-opacity:1;fill-rule:nonzero;stroke:none"
           transform="matrix(0,1,1,0,21.347656,330.98437)"><tspan
             id="tspan494"
             y="0"
             x="0">)</tspan></text>
</g></g><g
       id="g496"><g
         clip-path="url(#clipPath500)"
         id="g498"><text
           id="text504"
           style="font-variant:normal;font-weight:normal;font-size:14.89999962px;font-family:'Nimbus Sans L';-inkscape-font-specification:NimbusSansL;writing-mode:lr-tb;fill:#000000;fill-opacity:1;fill-rule:nonzero;stroke:none"
           transform="matrix(1,0,0,-1,566.19922,619.4375)"><tspan
             id="tspan506"
             y="0"
             x="0 4.9617 12.4117 20.711 28.995399 37.2798">rs6025</tspan></text>
<text
           id="text508"
           style="font-variant:normal;font-weight:normal;font-size:10.57999992px;font-family:'Nimbus Sans L';-inkscape-font-specification:NimbusSansL;writing-mode:lr-tb;fill:#000000;fill-opacity:1;fill-rule:nonzero;stroke:none"
           transform="matrix(1,0,0,-1,516.96484,601.32422)"><tspan
             id="tspan510"
             y="0"
             x="0 6.4643798 12.34686 15.2881 18.22934 21.17058 28.22744 34.109921 39.992401 45.874882 51.757359 57.047359 59.97802 62.919258 68.801743 72.324883 78.207359 87.0205 92.902977 98.785461 104.66794 113.48108 119.36356 125.24604 127.5948 129.94356 135.23357">F5;Venousthromboembolism</tspan></text>
</g></g><g
       id="g512" /></g></svg>