<?xml version="1.0" encoding="UTF-8" standalone="no"?>
<!-- Created with Inkscape (http://www.inkscape.org/) -->

<svg
   xmlns:dc="http://purl.org/dc/elements/1.1/"
   xmlns:cc="http://creativecommons.org/ns#"
   xmlns:rdf="http://www.w3.org/1999/02/22-rdf-syntax-ns#"
   xmlns:svg="http://www.w3.org/2000/svg"
   xmlns="http://www.w3.org/2000/svg"
   version="1.1"
   width="540"
   height="540"
   id="svg2">
  <defs
     id="defs4">
    <clipPath
       id="clipPath3115">
      <path
         d="M 0,432 433,432 433,-1 0,-1 0,432 z"
         id="path3117" />
    </clipPath>
    <clipPath
       id="clipPath3093">
      <path
         d="M 0,432 433,432 433,-1 0,-1 0,432 z"
         id="path3095" />
    </clipPath>
    <clipPath
       id="clipPath3053">
      <path
         d="M 0,432 433,432 433,-1 0,-1 0,432 z"
         id="path3055" />
    </clipPath>
    <clipPath
       id="clipPath3003">
      <path
         d="m 59.039,372.961 343.719,0 0,-300.52 -343.719,0 0,300.52 z"
         id="path3005" />
    </clipPath>
  </defs>
  <metadata
     id="metadata7">
    <rdf:RDF>
      <cc:Work
         rdf:about="">
        <dc:format>image/svg+xml</dc:format>
        <dc:type
           rdf:resource="http://purl.org/dc/dcmitype/StillImage" />
        <dc:title></dc:title>
      </cc:Work>
    </rdf:RDF>
  </metadata>
  <g
     transform="translate(-110,-199.50506)"
     id="layer1">
    <g
       transform="matrix(1.25,0,0,-1.25,110,739.50506)"
       id="g2993">
      <g
         id="g2995">
        <path
           d="M 0,0 432,0 432,432 0,432 0,0 z"
           id="path2997"
           style="fill:#ffffff;fill-opacity:1;fill-rule:nonzero;stroke:none" />
      </g>
      <g
         id="g2999">
        <g
           clip-path="url(#clipPath3003)"
           id="g3001">
          <path
             d="m 82.312,166.762 84.622,0 0,26.742 -21.157,3.133 21.157,3.133 0,23.351 -84.622,0 0,-23.351 21.153,-3.133 -21.153,-3.133 0,-26.742 z"
             id="path3007"
             style="fill:#63b8ff;fill-opacity:1;fill-rule:nonzero;stroke:none" />
          <path
             d="m 103.465,196.637 42.312,0"
             id="path3009"
             style="fill:none;stroke:#000000;stroke-width:3;stroke-linecap:butt;stroke-linejoin:round;stroke-miterlimit:10;stroke-opacity:1;stroke-dasharray:none" />
          <path
             d="m 124.621,84.535 0,82.227"
             id="path3011"
             style="fill:none;stroke:#000000;stroke-width:1;stroke-linecap:round;stroke-linejoin:round;stroke-miterlimit:10;stroke-opacity:1;stroke-dasharray:4, 4;stroke-dashoffset:0" />
          <path
             d="m 124.621,302.098 0,-78.977"
             id="path3013"
             style="fill:none;stroke:#000000;stroke-width:1;stroke-linecap:round;stroke-linejoin:round;stroke-miterlimit:10;stroke-opacity:1;stroke-dasharray:4, 4;stroke-dashoffset:0" />
          <path
             d="m 103.465,84.535 42.312,0"
             id="path3015"
             style="fill:none;stroke:#000000;stroke-width:1;stroke-linecap:round;stroke-linejoin:round;stroke-miterlimit:10;stroke-opacity:1;stroke-dasharray:none" />
          <path
             d="m 103.465,302.098 42.312,0"
             id="path3017"
             style="fill:none;stroke:#000000;stroke-width:1;stroke-linecap:round;stroke-linejoin:round;stroke-miterlimit:10;stroke-opacity:1;stroke-dasharray:none" />
          <path
             d="m 82.312,166.762 84.622,0 0,26.742 -21.157,3.133 21.157,3.133 0,23.351 -84.622,0 0,-23.351 21.153,-3.133 -21.153,-3.133 0,-26.742"
             id="path3019"
             style="fill:none;stroke:#000000;stroke-width:1;stroke-linecap:round;stroke-linejoin:round;stroke-miterlimit:10;stroke-opacity:1;stroke-dasharray:none" />
          <path
             d="m 188.09,194.996 84.621,0 0,27.477 -21.156,3.144 21.156,3.149 0,27.511 -84.621,0 0,-27.511 21.156,-3.149 -21.156,-3.144 0,-27.477 z"
             id="path3021"
             style="fill:#90ee90;fill-opacity:1;fill-rule:nonzero;stroke:none" />
          <path
             d="m 209.246,225.617 42.309,0"
             id="path3023"
             style="fill:none;stroke:#000000;stroke-width:3;stroke-linecap:butt;stroke-linejoin:round;stroke-miterlimit:10;stroke-opacity:1;stroke-dasharray:none" />
          <path
             d="m 230.398,103.555 0,91.441"
             id="path3025"
             style="fill:none;stroke:#000000;stroke-width:1;stroke-linecap:round;stroke-linejoin:round;stroke-miterlimit:10;stroke-opacity:1;stroke-dasharray:4, 4;stroke-dashoffset:0" />
          <path
             d="m 230.398,347.508 0,-91.231"
             id="path3027"
             style="fill:none;stroke:#000000;stroke-width:1;stroke-linecap:round;stroke-linejoin:round;stroke-miterlimit:10;stroke-opacity:1;stroke-dasharray:4, 4;stroke-dashoffset:0" />
          <path
             d="m 209.246,103.555 42.309,0"
             id="path3029"
             style="fill:none;stroke:#000000;stroke-width:1;stroke-linecap:round;stroke-linejoin:round;stroke-miterlimit:10;stroke-opacity:1;stroke-dasharray:none" />
          <path
             d="m 209.246,347.508 42.309,0"
             id="path3031"
             style="fill:none;stroke:#000000;stroke-width:1;stroke-linecap:round;stroke-linejoin:round;stroke-miterlimit:10;stroke-opacity:1;stroke-dasharray:none" />
          <path
             d="m 188.09,194.996 84.621,0 0,27.477 -21.156,3.144 21.156,3.149 0,27.511 -84.621,0 0,-27.511 21.156,-3.149 -21.156,-3.144 0,-27.477"
             id="path3033"
             style="fill:none;stroke:#000000;stroke-width:1;stroke-linecap:round;stroke-linejoin:round;stroke-miterlimit:10;stroke-opacity:1;stroke-dasharray:none" />
          <path
             d="m 293.867,226.004 84.621,0 0,18.746 -21.156,5.133 21.156,5.137 0,27.468 -84.621,0 0,-27.468 21.156,-5.137 -21.156,-5.133 0,-18.746 z"
             id="path3035"
             style="fill:#ff8247;fill-opacity:1;fill-rule:nonzero;stroke:none" />
          <path
             d="m 315.023,249.883 42.309,0"
             id="path3037"
             style="fill:none;stroke:#000000;stroke-width:3;stroke-linecap:butt;stroke-linejoin:round;stroke-miterlimit:10;stroke-opacity:1;stroke-dasharray:none" />
          <path
             d="m 336.18,153.891 0,72.113"
             id="path3039"
             style="fill:none;stroke:#000000;stroke-width:1;stroke-linecap:round;stroke-linejoin:round;stroke-miterlimit:10;stroke-opacity:1;stroke-dasharray:4, 4;stroke-dashoffset:0" />
          <path
             d="m 336.18,361.867 0,-79.379"
             id="path3041"
             style="fill:none;stroke:#000000;stroke-width:1;stroke-linecap:round;stroke-linejoin:round;stroke-miterlimit:10;stroke-opacity:1;stroke-dasharray:4, 4;stroke-dashoffset:0" />
          <path
             d="m 315.023,153.891 42.309,0"
             id="path3043"
             style="fill:none;stroke:#000000;stroke-width:1;stroke-linecap:round;stroke-linejoin:round;stroke-miterlimit:10;stroke-opacity:1;stroke-dasharray:none" />
          <path
             d="m 315.023,361.867 42.309,0"
             id="path3045"
             style="fill:none;stroke:#000000;stroke-width:1;stroke-linecap:round;stroke-linejoin:round;stroke-miterlimit:10;stroke-opacity:1;stroke-dasharray:none" />
          <path
             d="m 293.867,226.004 84.621,0 0,18.746 -21.156,5.133 21.156,5.137 0,27.468 -84.621,0 0,-27.468 21.156,-5.137 -21.156,-5.133 0,-18.746"
             id="path3047"
             style="fill:none;stroke:#000000;stroke-width:1;stroke-linecap:round;stroke-linejoin:round;stroke-miterlimit:10;stroke-opacity:1;stroke-dasharray:none" />
        </g>
      </g>
      <g
         id="g3049">
        <g
           clip-path="url(#clipPath3053)"
           id="g3051">
          <path
             d="m 124.621,73.441 211.559,0"
             id="path3057"
             style="fill:none;stroke:#000000;stroke-width:1;stroke-linecap:round;stroke-linejoin:round;stroke-miterlimit:10;stroke-opacity:1;stroke-dasharray:none" />
          <path
             d="m 124.621,73.441 0,-7.203"
             id="path3059"
             style="fill:none;stroke:#000000;stroke-width:1;stroke-linecap:round;stroke-linejoin:round;stroke-miterlimit:10;stroke-opacity:1;stroke-dasharray:none" />
          <path
             d="m 230.398,73.441 0,-7.203"
             id="path3061"
             style="fill:none;stroke:#000000;stroke-width:1;stroke-linecap:round;stroke-linejoin:round;stroke-miterlimit:10;stroke-opacity:1;stroke-dasharray:none" />
          <path
             d="m 336.18,73.441 0,-7.203"
             id="path3063"
             style="fill:none;stroke:#000000;stroke-width:1;stroke-linecap:round;stroke-linejoin:round;stroke-miterlimit:10;stroke-opacity:1;stroke-dasharray:none" />
          <text
             transform="matrix(1,0,0,-1,117.67187,46.078125)"
             id="text3065">
            <tspan
               x="0 6.9499998 105.775 112.725 211.55859 218.50861"
               y="0"
               id="tspan3067"
               style="font-size:12.5px;font-variant:normal;font-weight:normal;writing-mode:lr-tb;fill:#000000;fill-opacity:1;fill-rule:nonzero;stroke:none;font-family:NimbusSansL;-inkscape-font-specification:NimbusSansL">111222</tspan>
          </text>
          <path
             d="m 59.039,74.289 0,286.066"
             id="path3069"
             style="fill:none;stroke:#000000;stroke-width:1;stroke-linecap:round;stroke-linejoin:round;stroke-miterlimit:10;stroke-opacity:1;stroke-dasharray:none" />
          <path
             d="m 59.039,74.289 -7.199,0"
             id="path3071"
             style="fill:none;stroke:#000000;stroke-width:1;stroke-linecap:round;stroke-linejoin:round;stroke-miterlimit:10;stroke-opacity:1;stroke-dasharray:none" />
          <path
             d="m 59.039,121.969 -7.199,0"
             id="path3073"
             style="fill:none;stroke:#000000;stroke-width:1;stroke-linecap:round;stroke-linejoin:round;stroke-miterlimit:10;stroke-opacity:1;stroke-dasharray:none" />
          <path
             d="m 59.039,169.645 -7.199,0"
             id="path3075"
             style="fill:none;stroke:#000000;stroke-width:1;stroke-linecap:round;stroke-linejoin:round;stroke-miterlimit:10;stroke-opacity:1;stroke-dasharray:none" />
          <path
             d="m 59.039,217.324 -7.199,0"
             id="path3077"
             style="fill:none;stroke:#000000;stroke-width:1;stroke-linecap:round;stroke-linejoin:round;stroke-miterlimit:10;stroke-opacity:1;stroke-dasharray:none" />
          <path
             d="m 59.039,265 -7.199,0"
             id="path3079"
             style="fill:none;stroke:#000000;stroke-width:1;stroke-linecap:round;stroke-linejoin:round;stroke-miterlimit:10;stroke-opacity:1;stroke-dasharray:none" />
          <path
             d="m 59.039,312.68 -7.199,0"
             id="path3081"
             style="fill:none;stroke:#000000;stroke-width:1;stroke-linecap:round;stroke-linejoin:round;stroke-miterlimit:10;stroke-opacity:1;stroke-dasharray:none" />
          <path
             d="m 59.039,360.355 -7.199,0"
             id="path3083"
             style="fill:none;stroke:#000000;stroke-width:1;stroke-linecap:round;stroke-linejoin:round;stroke-miterlimit:10;stroke-opacity:1;stroke-dasharray:none" />
          <text
             transform="matrix(0,1,1,0,43.199219,68.734375)"
             id="text3085">
            <tspan
               x="0 4.1624999 47.674999 51.837502 95.362503 99.525002 145.11328 192.78828 240.47578 288.14453"
               y="0"
               id="tspan3087"
               style="font-size:12.5px;font-variant:normal;font-weight:normal;writing-mode:lr-tb;fill:#000000;fill-opacity:1;fill-rule:nonzero;stroke:none;font-family:NimbusSansL;-inkscape-font-specification:NimbusSansL">-3-2-10123</tspan>
          </text>
        </g>
      </g>
      <g
         id="g3089">
        <g
           clip-path="url(#clipPath3093)"
           id="g3091">
          <text
             transform="matrix(1,0,0,-1,134.3125,405.69141)"
             id="text3097">
            <tspan
               x="0 11.5922 22.364901 31.4688 42.226601 51.345402 59.629799 63.771999 68.733704 72.8759 85.302498 93.586899 98.548599 106.833 115.9518 125.0557 129.19791 133.3401 138.3018 146.5862 150.7433 154.8855 163.16991 171.46919 179.7536 183.8958"
               y="0"
               id="tspan3099"
               style="font-size:14.89999962px;font-variant:normal;font-weight:normal;writing-mode:lr-tb;fill:#000000;fill-opacity:1;fill-rule:nonzero;stroke:none;font-family:NimbusSansL;-inkscape-font-specification:NimbusSansL">GALNT2 ; Metabolite levels</tspan>
            <tspan
               x="-1.2812495 2.8609505 11.14535 20.264151 26.060251 34.34465 39.306351 47.605652 55.890049 64.174454 72.458847 80.758148 89.042549 97.32695 105.62625 113.91065 118.87235 127.15675 135.45605 143.74045 152.01375 160.29816 168.59744 176.88185 185.16624"
               y="17.281244"
               id="tspan3101"
               style="font-size:14.89999962px;font-variant:normal;font-weight:normal;writing-mode:lr-tb;fill:#000000;fill-opacity:1;fill-rule:nonzero;stroke:none;font-family:NimbusSansL;-inkscape-font-specification:NimbusSansL"> chr1:230305000-230305500</tspan>
          </text>
          <text
             transform="matrix(1,0,0,-1,168.55469,17.28125)"
             id="text3103">
            <tspan
               x="0 4.1624999 10.4125 17.362499 24.3125 31.262501 38.212502 45.162498 52.112499 59.0625 66.012497 69.487503 79.212502 86.162498 93.112503 100.0625 103.5375 109.7875 116.7375"
               y="0"
               id="tspan3105"
               style="font-size:12.5px;font-variant:normal;font-weight:normal;writing-mode:lr-tb;fill:#000000;fill-opacity:1;fill-rule:nonzero;stroke:none;font-family:NimbusSansL;-inkscape-font-specification:NimbusSansL">rs10127775 Genotype</tspan>
          </text>
          <text
             transform="matrix(0,1,1,0,14.398438,196.11328)"
             id="text3107">
            <tspan
               x="0 6.9499998 13.9 22.924999 26.4 35.424999 43.762501"
               y="0"
               id="tspan3109"
               style="font-size:12.5px;font-variant:normal;font-weight:normal;writing-mode:lr-tb;fill:#000000;fill-opacity:1;fill-rule:nonzero;stroke:none;font-family:NimbusSansL;-inkscape-font-specification:NimbusSansL">qqN RPM</tspan>
          </text>
        </g>
      </g>
      <g
         id="g3111">
        <g
           clip-path="url(#clipPath3115)"
           id="g3113">
          <path
             d="m 59.039,73.441 342.723,0 0,299.52 -342.723,0 0,-299.52 z"
             id="path3119"
             style="fill:none;stroke:#000000;stroke-width:1;stroke-linecap:round;stroke-linejoin:round;stroke-miterlimit:10;stroke-opacity:1;stroke-dasharray:none" />
        </g>
      </g>
      <g
         id="g3121" />
    </g>
  </g>
</svg>
