<?xml version="1.0" encoding="UTF-8" standalone="no"?>
<!-- Created with Inkscape (http://www.inkscape.org/) -->

<svg
   xmlns:dc="http://purl.org/dc/elements/1.1/"
   xmlns:cc="http://creativecommons.org/ns#"
   xmlns:rdf="http://www.w3.org/1999/02/22-rdf-syntax-ns#"
   xmlns:svg="http://www.w3.org/2000/svg"
   xmlns="http://www.w3.org/2000/svg"
   version="1.1"
   width="1440.8986"
   height="810.89929"
   id="svg3188">
  <defs
     id="defs3190">
    <clipPath
       id="clipPath3491">
      <path
         d="m 0,648 1153,0 0,-649 L 0,-1 0,648 z"
         id="path3493" />
    </clipPath>
    <clipPath
       id="clipPath3459">
      <path
         d="m 0,648 1153,0 0,-649 L 0,-1 0,648 z"
         id="path3461" />
    </clipPath>
    <clipPath
       id="clipPath3447">
      <path
         d="m 0,648 1153,0 0,-649 L 0,-1 0,648 z"
         id="path3449" />
    </clipPath>
    <clipPath
       id="clipPath3435">
      <path
         d="m 0,648 1153,0 0,-649 L 0,-1 0,648 z"
         id="path3437" />
    </clipPath>
    <clipPath
       id="clipPath3417">
      <path
         d="m 0,648 1153,0 0,-649 L 0,-1 0,648 z"
         id="path3419" />
    </clipPath>
    <clipPath
       id="clipPath3401">
      <path
         d="m 0,648 1153,0 0,-649 L 0,-1 0,648 z"
         id="path3403" />
    </clipPath>
    <clipPath
       id="clipPath3383">
      <path
         d="m 0,648 1153,0 0,-649 L 0,-1 0,648 z"
         id="path3385" />
    </clipPath>
    <clipPath
       id="clipPath3295">
      <path
         d="m 45.977,584.488 1092.625,0 0,-547.531 -1092.625,0 0,547.531 z"
         id="path3297" />
    </clipPath>
    <clipPath
       id="clipPath3285">
      <path
         d="m 0,648 1153,0 0,-649 L 0,-1 0,648 z"
         id="path3287" />
    </clipPath>
  </defs>
  <metadata
     id="metadata3193">
    <rdf:RDF>
      <cc:Work
         rdf:about="">
        <dc:format>image/svg+xml</dc:format>
        <dc:type
           rdf:resource="http://purl.org/dc/dcmitype/StillImage" />
        <dc:title></dc:title>
      </cc:Work>
    </rdf:RDF>
  </metadata>
  <g
     transform="translate(-365.27137,-555.4907)"
     id="layer1">
    <g
       transform="matrix(1.25,0,0,-1.25,365.27137,1365.4907)"
       id="g3275">
      <g
         id="g3277">
        <path
           d="m 0,0 1152,0 0,648 L 0,648 0,0 z"
           id="path3279"
           style="fill:#ffffff;fill-opacity:1;fill-rule:nonzero;stroke:none" />
      </g>
      <g
         id="g3281">
        <g
           clip-path="url(#clipPath3285)"
           id="g3283">
          <path
             d="M 0,648 1152,648 1152,0 0,0 0,648 z"
             id="path3289"
             style="fill:#ffffff;fill-opacity:1;fill-rule:nonzero;stroke:#ffffff;stroke-width:1.41732299;stroke-linecap:round;stroke-linejoin:round;stroke-miterlimit:10;stroke-opacity:1;stroke-dasharray:none" />
        </g>
      </g>
      <g
         id="g3291">
        <g
           clip-path="url(#clipPath3295)"
           id="g3293">
          <path
             d="m 45.977,584.488 1091.625,0 0,-546.531 -1091.625,0 0,546.531 z"
             id="path3299"
             style="fill:#e5e5e5;fill-opacity:1;fill-rule:nonzero;stroke:none" />
          <path
             d="m 45.977,129.137 1091.625,0"
             id="path3301"
             style="fill:none;stroke:#f2f2f2;stroke-width:0.70866102;stroke-linecap:butt;stroke-linejoin:round;stroke-miterlimit:10;stroke-opacity:1;stroke-dasharray:none" />
          <path
             d="m 45.977,261.812 1091.625,0"
             id="path3303"
             style="fill:none;stroke:#f2f2f2;stroke-width:0.70866102;stroke-linecap:butt;stroke-linejoin:round;stroke-miterlimit:10;stroke-opacity:1;stroke-dasharray:none" />
          <path
             d="m 45.977,394.492 1091.625,0"
             id="path3305"
             style="fill:none;stroke:#f2f2f2;stroke-width:0.70866102;stroke-linecap:butt;stroke-linejoin:round;stroke-miterlimit:10;stroke-opacity:1;stroke-dasharray:none" />
          <path
             d="m 45.977,527.172 1091.625,0"
             id="path3307"
             style="fill:none;stroke:#f2f2f2;stroke-width:0.70866102;stroke-linecap:butt;stroke-linejoin:round;stroke-miterlimit:10;stroke-opacity:1;stroke-dasharray:none" />
          <path
             d="m 109.84,37.957 0,546.531"
             id="path3309"
             style="fill:none;stroke:#f2f2f2;stroke-width:0.70866102;stroke-linecap:butt;stroke-linejoin:round;stroke-miterlimit:10;stroke-opacity:1;stroke-dasharray:none" />
          <path
             d="m 299.77,37.957 0,546.531"
             id="path3311"
             style="fill:none;stroke:#f2f2f2;stroke-width:0.70866102;stroke-linecap:butt;stroke-linejoin:round;stroke-miterlimit:10;stroke-opacity:1;stroke-dasharray:none" />
          <path
             d="m 489.699,37.957 0,546.531"
             id="path3313"
             style="fill:none;stroke:#f2f2f2;stroke-width:0.70866102;stroke-linecap:butt;stroke-linejoin:round;stroke-miterlimit:10;stroke-opacity:1;stroke-dasharray:none" />
          <path
             d="m 679.633,37.957 0,546.531"
             id="path3315"
             style="fill:none;stroke:#f2f2f2;stroke-width:0.70866102;stroke-linecap:butt;stroke-linejoin:round;stroke-miterlimit:10;stroke-opacity:1;stroke-dasharray:none" />
          <path
             d="m 869.562,37.957 0,546.531"
             id="path3317"
             style="fill:none;stroke:#f2f2f2;stroke-width:0.70866102;stroke-linecap:butt;stroke-linejoin:round;stroke-miterlimit:10;stroke-opacity:1;stroke-dasharray:none" />
          <path
             d="m 1059.492,37.957 0,546.531"
             id="path3319"
             style="fill:none;stroke:#f2f2f2;stroke-width:0.70866102;stroke-linecap:butt;stroke-linejoin:round;stroke-miterlimit:10;stroke-opacity:1;stroke-dasharray:none" />
          <path
             d="m 45.977,62.797 1091.625,0"
             id="path3321"
             style="fill:none;stroke:#ffffff;stroke-width:1.41732299;stroke-linecap:butt;stroke-linejoin:round;stroke-miterlimit:10;stroke-opacity:1;stroke-dasharray:none" />
          <path
             d="m 45.977,195.477 1091.625,0"
             id="path3323"
             style="fill:none;stroke:#ffffff;stroke-width:1.41732299;stroke-linecap:butt;stroke-linejoin:round;stroke-miterlimit:10;stroke-opacity:1;stroke-dasharray:none" />
          <path
             d="m 45.977,328.152 1091.625,0"
             id="path3325"
             style="fill:none;stroke:#ffffff;stroke-width:1.41732299;stroke-linecap:butt;stroke-linejoin:round;stroke-miterlimit:10;stroke-opacity:1;stroke-dasharray:none" />
          <path
             d="m 45.977,460.832 1091.625,0"
             id="path3327"
             style="fill:none;stroke:#ffffff;stroke-width:1.41732299;stroke-linecap:butt;stroke-linejoin:round;stroke-miterlimit:10;stroke-opacity:1;stroke-dasharray:none" />
          <path
             d="m 204.805,37.957 0,546.531"
             id="path3329"
             style="fill:none;stroke:#ffffff;stroke-width:1.41732299;stroke-linecap:butt;stroke-linejoin:round;stroke-miterlimit:10;stroke-opacity:1;stroke-dasharray:none" />
          <path
             d="m 394.734,37.957 0,546.531"
             id="path3331"
             style="fill:none;stroke:#ffffff;stroke-width:1.41732299;stroke-linecap:butt;stroke-linejoin:round;stroke-miterlimit:10;stroke-opacity:1;stroke-dasharray:none" />
          <path
             d="m 584.664,37.957 0,546.531"
             id="path3333"
             style="fill:none;stroke:#ffffff;stroke-width:1.41732299;stroke-linecap:butt;stroke-linejoin:round;stroke-miterlimit:10;stroke-opacity:1;stroke-dasharray:none" />
          <path
             d="m 774.598,37.957 0,546.531"
             id="path3335"
             style="fill:none;stroke:#ffffff;stroke-width:1.41732299;stroke-linecap:butt;stroke-linejoin:round;stroke-miterlimit:10;stroke-opacity:1;stroke-dasharray:none" />
          <path
             d="m 964.527,37.957 0,546.531"
             id="path3337"
             style="fill:none;stroke:#ffffff;stroke-width:1.41732299;stroke-linecap:butt;stroke-linejoin:round;stroke-miterlimit:10;stroke-opacity:1;stroke-dasharray:none" />
          <path
             d="m 95.594,62.969 4.75,4.426 4.75,6.976 4.746,-8.293 4.75,2.059 4.746,-0.254 4.75,-4.707 4.746,5.097 4.75,-5.293 4.746,0.856 4.75,7.426 4.75,-8.407 4.746,2.532 4.75,-0.856 4.746,-1.449 4.75,8.859 4.746,4.536 4.75,-7.012 4.746,-3.863 4.75,9.988 4.75,14.84 4.747,19.882 4.75,13.481 4.746,-18.59 4.75,7.492 4.746,-8.394 4.75,-20.699 4.746,-17.414 4.75,6.882 4.75,7.645 4.746,-16.113 4.75,1.543 4.746,-2.516 4.75,4.762 4.746,4.347 4.75,4.317 4.746,-1.887 4.75,-0.734 4.75,-1.746 4.746,2.589 4.75,-11.972 4.746,1.172 4.75,1.941 4.747,1.914 4.75,11.625 4.746,24.992 4.75,-28.09 4.746,-13.547 4.75,23.114 4.75,20 4.746,-29.11 4.75,-6.597 4.746,5.855 4.75,-11.281 4.746,22.82 4.75,-24.613 4.746,1.922 4.75,3.508 4.75,-3.797 4.746,8.398 4.75,-10.011 4.746,5.113 4.75,3.226 4.746,-4.558 4.75,-3.899 4.746,2.844 4.75,-3.351 4.75,1.691 4.747,2.031 4.75,1.481 4.746,48.199 4.75,7.926 4.746,-34.418 4.75,-12.867 4.746,-1.7 4.75,-6.351 4.75,6.687 4.746,30.879 4.75,-6.789 4.746,-16.625 4.75,-4.398 4.746,47.14 4.75,206.387 4.746,-36.625 4.75,-223.535 4.746,17.887 4.75,-23.086 4.75,-2.727 4.746,-0.273 4.75,2.347 4.747,5.676 4.75,13.582 4.746,-12.035 4.75,-6.477 4.746,100.559 4.75,37.117 4.75,-73.785 4.746,-66.563 4.75,1.25 4.746,1.129 4.75,-3.324 4.746,4.324 4.75,0.871 4.746,1.809 4.75,-1.98 4.75,-5.211 4.746,7.914 4.75,-6.836 4.746,-0.18 4.75,0.399 4.746,0.789 4.75,2.015 4.746,-3.851 4.75,8.093 4.75,-7.339 4.747,0.242 4.75,0.078 4.746,1.258 4.75,-2.469 4.746,193.949 4.75,241.688 4.746,10.578 4.75,-441.817 4.75,149.227 4.746,342.809 4.75,-180.25 4.746,-309.411 4.75,-0.613 4.746,-3.164 4.75,2.34 4.746,-1.859 4.75,1.339 4.746,16.411 4.75,40.425 4.75,-57.054 4.746,7.289 4.75,-6.25 4.746,-4.969 4.75,6.226 4.747,-0.402 4.75,89.77 4.746,22.453 4.75,-55.828 4.75,-53.407 4.746,0.817 4.75,-7.403 4.746,-1.855 4.75,-0.676 4.746,3.821 4.75,25.625 4.746,29.527 4.75,-23.32 4.75,-6.364 4.746,124.766 4.75,-18.098 4.746,-92.984 4.75,-20.211 4.746,19.48 4.75,19.707 4.746,-40.351 4.75,17.601 4.75,21.422 4.746,-24.734 4.75,-23.481 4.747,-12.683 4.75,1.769 4.746,35.579 4.75,-3.243 4.746,-32.179 4.75,10.336 4.75,-12.602 4.746,2.426 4.75,-2.289 4.746,1.468 4.75,4.508 4.746,3.184 4.75,-4.484 4.746,-1.891 4.75,0.773 4.746,6.461 4.75,-6.422 4.75,-0.586 4.746,1.77 4.75,18.168 4.746,29.141 4.75,13.597 4.747,55.781 4.75,-17.386 4.746,-29.977 4.75,-62.058 4.75,0.195 4.746,-6.492 4.75,0.136 4.746,11.02 4.75,-6.324 4.746,-7.172 4.75,1.566 4.746,24.321 4.75,8.921 4.75,-23.75 4.746,-14.378 4.75,6.711 4.746,3.96 4.75,-1.55 4.746,-9.438 4.75,2.094 4.746,3.832 4.75,-3.703 4.75,0.551 4.746,1.082 0,-3.926 -4.746,0 -4.75,0 -4.75,0 -4.746,0 -4.75,0 -4.746,0 -4.75,0 -4.746,0 -4.75,0 -4.746,0 -4.75,0 -4.75,0 -4.746,0 -4.75,0 -4.746,0 -4.75,0 -4.746,0 -4.75,0 -4.746,0 -4.75,0 -4.75,0 -4.746,0 -4.75,0 -4.747,0 -4.75,0 -4.746,0 -4.75,0 -4.746,0 -4.75,0 -4.75,0 -4.746,0 -4.75,0 -4.746,0 -4.75,0 -4.746,0 -4.75,0 -4.746,0 -4.75,0 -4.746,0 -4.75,0 -4.75,0 -4.746,0 -4.75,0 -4.746,0 -4.75,0 -4.747,0 -4.75,0 -4.746,0 -4.75,0 -4.75,0 -4.746,0 -4.75,0 -4.746,0 -4.75,0 -4.746,0 -4.75,0 -4.746,0 -4.75,0 -4.75,0 -4.746,0 -4.75,0 -4.746,0 -4.75,0 -4.746,0 -4.75,0 -4.746,0 -4.75,0 -4.75,0 -4.746,0 -4.75,0 -4.747,0 -4.75,0 -4.746,0 -4.75,0 -4.746,0 -4.75,0 -4.75,0 -4.746,0 -4.75,0 -4.746,0 -4.75,0 -4.746,0 -4.75,0 -4.746,0 -4.75,0 -4.746,0 -4.75,0 -4.75,0 -4.746,0 -4.75,0 -4.746,0 -4.75,0 -4.746,0 -4.75,0 -4.747,0 -4.75,0 -4.75,0 -4.746,0 -4.75,0 -4.746,0 -4.75,0 -4.746,0 -4.75,0 -4.746,0 -4.75,0 -4.75,0 -4.746,0 -4.75,0 -4.746,0 -4.75,0 -4.746,0 -4.75,0 -4.746,0 -4.75,0 -4.75,0 -4.746,0 -4.75,0 -4.746,0 -4.75,0 -4.747,0 -4.75,0 -4.746,0 -4.75,0 -4.75,0 -4.746,0 -4.75,0 -4.746,0 -4.75,0 -4.746,0 -4.75,0 -4.746,0 -4.75,0 -4.746,0 -4.75,0 -4.75,0 -4.746,0 -4.75,0 -4.746,0 -4.75,0 -4.746,0 -4.75,0 -4.747,0 -4.75,0 -4.75,0 -4.746,0 -4.75,0 -4.746,0 -4.75,0 -4.746,0 -4.75,0 -4.746,0 -4.75,0 -4.75,0 -4.746,0 -4.75,0 -4.746,0 -4.75,0 -4.746,0 -4.75,0 -4.746,0 -4.75,0 -4.75,0 -4.746,0 -4.75,0 -4.746,0 -4.75,0 -4.747,0 -4.75,0 -4.746,0 -4.75,0 -4.746,0 -4.75,0 -4.75,0 -4.746,0 -4.75,0 -4.746,0 -4.75,0 -4.746,0 -4.75,0 -4.746,0 -4.75,0 -4.75,0 -4.746,0 -4.75,0 -4.746,0 -4.75,0 -4.746,0 -4.75,0 -4.747,0 -4.75,0 -4.75,0 -4.746,0 -4.75,0 -4.746,0 -4.75,0 -4.746,0 -4.75,0 -4.746,0 -4.75,0 -4.75,0 -4.746,0 -4.75,0 -4.746,0 -4.75,0 -4.746,0 -4.75,0 -4.746,0 -4.75,0 -4.75,0 0,0.172 z"
             id="path3339"
             style="fill:#e31a1c;fill-opacity:1;fill-rule:nonzero;stroke:none" />
          <path
             d="m 209.555,112.695 4.746,-8.394 0,-41.504 -4.746,0 0,49.898 z"
             id="path3341"
             style="fill:#ff7f00;fill-opacity:1;fill-rule:nonzero;stroke:none" />
          <path
             d="m 285.527,63.305 4.746,1.172 0,-1.68 -4.746,0 0,0.508 z"
             id="path3343"
             style="fill:#ff7f00;fill-opacity:1;fill-rule:nonzero;stroke:none" />
          <path
             d="m 323.512,86.426 4.75,20 0,-43.629 -4.75,0 0,23.629 z"
             id="path3345"
             style="fill:#ff7f00;fill-opacity:1;fill-rule:nonzero;stroke:none" />
          <path
             d="m 370.996,65.133 4.746,8.398 0,-10.734 -4.746,0 0,2.336 z"
             id="path3347"
             style="fill:#ff7f00;fill-opacity:1;fill-rule:nonzero;stroke:none" />
          <path
             d="m 560.926,65.48 4.746,1.129 0,-3.812 -4.746,0 0,2.683 z"
             id="path3349"
             style="fill:#ff7f00;fill-opacity:1;fill-rule:nonzero;stroke:none" />
          <path
             d="m 798.336,67.395 4.75,25.625 0,-30.223 -4.75,0 0,4.598 z"
             id="path3351"
             style="fill:#ff7f00;fill-opacity:1;fill-rule:nonzero;stroke:none" />
          <path
             d="m 480.203,125.781 4.75,206.387 4.746,-36.625 4.75,-223.535 0,-9.211 -4.75,0 -4.746,0 -4.75,0 0,62.984 z"
             id="path3353"
             style="fill:#1f78b4;fill-opacity:1;fill-rule:nonzero;stroke:none" />
          <path
             d="m 513.441,63.809 4.75,2.347 0,-3.359 -4.75,0 0,1.012 z"
             id="path3355"
             style="fill:#1f78b4;fill-opacity:1;fill-rule:nonzero;stroke:none" />
          <path
             d="m 655.891,63.211 4.746,193.949 0,-194.363 -4.746,0 0,0.414 z"
             id="path3357"
             style="fill:#1f78b4;fill-opacity:1;fill-rule:nonzero;stroke:none" />
          <path
             d="m 907.547,65.383 4.75,-2.289 0,-0.297 -4.75,0 0,2.586 z"
             id="path3359"
             style="fill:#1f78b4;fill-opacity:1;fill-rule:nonzero;stroke:none" />
          <path
             d="m 959.777,67.875 4.75,18.168 0,-23.246 -4.75,0 0,5.078 z"
             id="path3361"
             style="fill:#1f78b4;fill-opacity:1;fill-rule:nonzero;stroke:none" />
          <path
             d="m 983.52,167.176 4.746,-29.977 0,-74.402 -4.746,0 0,104.379 z"
             id="path3363"
             style="fill:#1f78b4;fill-opacity:1;fill-rule:nonzero;stroke:none" />
          <path
             d="m 1021.504,66.504 4.75,1.566 0,-5.273 -4.75,0 0,3.707 z"
             id="path3365"
             style="fill:#1f78b4;fill-opacity:1;fill-rule:nonzero;stroke:none" />
          <path
             d="m 1049.996,69.895 4.746,3.96 0,-11.058 -4.746,0 0,7.098 z"
             id="path3367"
             style="fill:#1f78b4;fill-opacity:1;fill-rule:nonzero;stroke:none" />
          <path
             d="m 921.793,69.07 4.746,3.184 0,-9.457 -4.746,0 0,6.273 z"
             id="path3369"
             style="fill:#6a3d9a;fill-opacity:1;fill-rule:nonzero;stroke:none" />
          <path
             d="m 504.688,62.797 0,49.683"
             id="path3371"
             style="fill:none;stroke:#000000;stroke-width:1.41732299;stroke-linecap:butt;stroke-linejoin:round;stroke-miterlimit:10;stroke-opacity:1;stroke-dasharray:4, 4;stroke-dashoffset:0" />
          <text
             transform="matrix(1,0,0,-1,473.41406,120.58203)"
             id="text3373">
            <tspan
               x="0 3.9422481 9.8615398 16.455631 23.037882 29.620134 36.214226 42.796478 49.378731 55.960983"
               y="0"
               id="tspan3375"
               style="font-size:11.83858299px;font-variant:normal;font-weight:normal;writing-mode:lr-tb;fill:#000000;fill-opacity:1;fill-rule:nonzero;stroke:none;font-family:NimbusSansL;-inkscape-font-specification:NimbusSansL">rs10127775</tspan>
          </text>
          <path
             d="m 507.312,62.797 c 0,-3.5 -5.253,-3.5 -5.253,0 0,3.504 5.253,3.504 5.253,0"
             id="path3377"
             style="fill:#000000;fill-opacity:1;fill-rule:nonzero;stroke:none" />
        </g>
      </g>
      <g
         id="g3379">
        <g
           clip-path="url(#clipPath3383)"
           id="g3381">
          <text
             transform="matrix(1,0,0,-1,33.277344,59.117188)"
             id="text3387">
            <tspan
               x="0"
               y="0"
               id="tspan3389"
               style="font-size:10.10000038px;font-variant:normal;font-weight:normal;writing-mode:lr-tb;fill:#7f7f7f;fill-opacity:1;fill-rule:nonzero;stroke:none;font-family:NimbusSansL;-inkscape-font-specification:NimbusSansL">0</tspan>
            <tspan
               x="-5.6093783 0.0062215999"
               y="-132.67969"
               id="tspan3391"
               style="font-size:10.10000038px;font-variant:normal;font-weight:normal;writing-mode:lr-tb;fill:#7f7f7f;fill-opacity:1;fill-rule:nonzero;stroke:none;font-family:NimbusSansL;-inkscape-font-specification:NimbusSansL">10</tspan>
            <tspan
               x="-5.6093783 0.0062215999"
               y="-265.35547"
               id="tspan3393"
               style="font-size:10.10000038px;font-variant:normal;font-weight:normal;writing-mode:lr-tb;fill:#7f7f7f;fill-opacity:1;fill-rule:nonzero;stroke:none;font-family:NimbusSansL;-inkscape-font-specification:NimbusSansL">20</tspan>
            <tspan
               x="-5.6093783 0.0062215999"
               y="-398.03516"
               id="tspan3395"
               style="font-size:10.10000038px;font-variant:normal;font-weight:normal;writing-mode:lr-tb;fill:#7f7f7f;fill-opacity:1;fill-rule:nonzero;stroke:none;font-family:NimbusSansL;-inkscape-font-specification:NimbusSansL">30</tspan>
          </text>
        </g>
      </g>
      <g
         id="g3397">
        <g
           clip-path="url(#clipPath3401)"
           id="g3399">
          <path
             d="m 41.723,62.797 4.254,0"
             id="path3405"
             style="fill:none;stroke:#7f7f7f;stroke-width:1.41732299;stroke-linecap:butt;stroke-linejoin:round;stroke-miterlimit:10;stroke-opacity:1;stroke-dasharray:none" />
          <path
             d="m 41.723,195.477 4.254,0"
             id="path3407"
             style="fill:none;stroke:#7f7f7f;stroke-width:1.41732299;stroke-linecap:butt;stroke-linejoin:round;stroke-miterlimit:10;stroke-opacity:1;stroke-dasharray:none" />
          <path
             d="m 41.723,328.152 4.254,0"
             id="path3409"
             style="fill:none;stroke:#7f7f7f;stroke-width:1.41732299;stroke-linecap:butt;stroke-linejoin:round;stroke-miterlimit:10;stroke-opacity:1;stroke-dasharray:none" />
          <path
             d="m 41.723,460.832 4.254,0"
             id="path3411"
             style="fill:none;stroke:#7f7f7f;stroke-width:1.41732299;stroke-linecap:butt;stroke-linejoin:round;stroke-miterlimit:10;stroke-opacity:1;stroke-dasharray:none" />
        </g>
      </g>
      <g
         id="g3413">
        <g
           clip-path="url(#clipPath3417)"
           id="g3415">
          <path
             d="m 204.805,33.703 0,4.254"
             id="path3421"
             style="fill:none;stroke:#7f7f7f;stroke-width:1.41732299;stroke-linecap:butt;stroke-linejoin:round;stroke-miterlimit:10;stroke-opacity:1;stroke-dasharray:none" />
          <path
             d="m 394.734,33.703 0,4.254"
             id="path3423"
             style="fill:none;stroke:#7f7f7f;stroke-width:1.41732299;stroke-linecap:butt;stroke-linejoin:round;stroke-miterlimit:10;stroke-opacity:1;stroke-dasharray:none" />
          <path
             d="m 584.664,33.703 0,4.254"
             id="path3425"
             style="fill:none;stroke:#7f7f7f;stroke-width:1.41732299;stroke-linecap:butt;stroke-linejoin:round;stroke-miterlimit:10;stroke-opacity:1;stroke-dasharray:none" />
          <path
             d="m 774.598,33.703 0,4.254"
             id="path3427"
             style="fill:none;stroke:#7f7f7f;stroke-width:1.41732299;stroke-linecap:butt;stroke-linejoin:round;stroke-miterlimit:10;stroke-opacity:1;stroke-dasharray:none" />
          <path
             d="m 964.527,33.703 0,4.254"
             id="path3429"
             style="fill:none;stroke:#7f7f7f;stroke-width:1.41732299;stroke-linecap:butt;stroke-linejoin:round;stroke-miterlimit:10;stroke-opacity:1;stroke-dasharray:none" />
        </g>
      </g>
      <g
         id="g3431">
        <g
           clip-path="url(#clipPath3435)"
           id="g3433">
          <text
             transform="matrix(1,0,0,-1,189.37109,23.507812)"
             id="text3439">
            <tspan
               x="0 5.6156001 11.2211 16.8367 19.644501 25.260099 189.92969 195.54529 201.15079 206.76639 209.57419 215.18979 379.85938 385.47498 391.08047 396.69608 399.50388 405.11948 569.79297 575.40857 581.0141 586.6297 589.4375 595.0531 759.72266 765.33826 770.94379 776.55939 779.36719 784.98279"
               y="0"
               id="tspan3441"
               style="font-size:10.10000038px;font-variant:normal;font-weight:normal;writing-mode:lr-tb;fill:#7f7f7f;fill-opacity:1;fill-rule:nonzero;stroke:none;font-family:NimbusSansL;-inkscape-font-specification:NimbusSansL">230.28230.29230.30230.31230.32</tspan>
          </text>
        </g>
      </g>
      <g
         id="g3443">
        <g
           clip-path="url(#clipPath3447)"
           id="g3445">
          <text
             transform="matrix(1,0,0,-1,555.67188,10.800781)"
             id="text3451">
            <tspan
               x="0 6.9499998 13.9 20.15 22.924999 26.4 29.174999 36.125 43.075001 46.549999 50.712502 61.125 68.074997"
               y="0"
               id="tspan3453"
               style="font-size:12.5px;font-variant:normal;font-weight:normal;writing-mode:lr-tb;fill:#000000;fill-opacity:1;fill-rule:nonzero;stroke:none;font-family:NimbusSansL;-inkscape-font-specification:NimbusSansL">position (Mb)</tspan>
          </text>
        </g>
      </g>
      <g
         id="g3455">
        <g
           clip-path="url(#clipPath3459)"
           id="g3457">
          <text
             transform="matrix(0,1,1,0,21.347656,286.35937)"
             id="text3463">
            <tspan
               x="0"
               y="0"
               id="tspan3465"
               style="font-size:12.5px;font-variant:normal;font-weight:normal;writing-mode:lr-tb;fill:#000000;fill-opacity:1;fill-rule:nonzero;stroke:none;font-family:StandardSymbolsL;-inkscape-font-specification:StandardSymbolsL">−</tspan>
          </text>
          <text
             transform="matrix(0,1,1,0,21.347656,291.22187)"
             id="text3467">
            <tspan
               x="0 2.7750001 9.7250004"
               y="0"
               id="tspan3469"
               style="font-size:12.5px;font-variant:normal;font-weight:normal;writing-mode:lr-tb;fill:#000000;fill-opacity:1;fill-rule:nonzero;stroke:none;font-family:NimbusSansL;-inkscape-font-specification:NimbusSansL">log</tspan>
          </text>
          <text
             transform="matrix(0,1,1,0,23.636719,307.89453)"
             id="text3471">
            <tspan
               x="0 4.9484"
               y="0"
               id="tspan3473"
               style="font-size:8.89999962px;font-variant:normal;font-weight:normal;writing-mode:lr-tb;fill:#000000;fill-opacity:1;fill-rule:nonzero;stroke:none;font-family:NimbusSansL;-inkscape-font-specification:NimbusSansL">10</tspan>
          </text>
          <text
             transform="matrix(0,1,1,0,21.347656,317.80078)"
             id="text3475">
            <tspan
               x="0"
               y="0"
               id="tspan3477"
               style="font-size:15.5px;font-variant:normal;font-weight:normal;writing-mode:lr-tb;fill:#000000;fill-opacity:1;fill-rule:nonzero;stroke:none;font-family:StandardSymbolsL;-inkscape-font-specification:StandardSymbolsL">(</tspan>
          </text>
          <text
             transform="matrix(0,1,1,0,21.347656,322.96094)"
             id="text3479">
            <tspan
               x="0"
               y="0"
               id="tspan3481"
               style="font-size:12.5px;font-variant:normal;font-weight:normal;writing-mode:lr-tb;fill:#000000;fill-opacity:1;fill-rule:nonzero;stroke:none;font-family:NimbusSansL;-inkscape-font-specification:NimbusSansL">p</tspan>
          </text>
          <text
             transform="matrix(0,1,1,0,21.347656,330.92187)"
             id="text3483">
            <tspan
               x="0"
               y="0"
               id="tspan3485"
               style="font-size:15.5px;font-variant:normal;font-weight:normal;writing-mode:lr-tb;fill:#000000;fill-opacity:1;fill-rule:nonzero;stroke:none;font-family:StandardSymbolsL;-inkscape-font-specification:StandardSymbolsL">)</tspan>
          </text>
        </g>
      </g>
      <g
         id="g3487">
        <g
           clip-path="url(#clipPath3491)"
           id="g3489">
          <text
             transform="matrix(1,0,0,-1,552.42969,619.4375)"
             id="text3495">
            <tspan
               x="0 4.9617 12.4117 20.711 28.995399 37.2798 45.579102 53.863499 62.1479 70.432297"
               y="0"
               id="tspan3497"
               style="font-size:14.89999962px;font-variant:normal;font-weight:normal;writing-mode:lr-tb;fill:#000000;fill-opacity:1;fill-rule:nonzero;stroke:none;font-family:NimbusSansL;-inkscape-font-specification:NimbusSansL">rs10127775</tspan>
          </text>
          <text
             transform="matrix(1,0,0,-1,527.41406,601.19922)"
             id="text3499">
            <tspan
               x="0 8.2312403 15.2881 21.17058 28.80934 35.27372 41.1562 44.097439 47.038681 49.979919 58.79306 64.675537 67.616783 73.49926 79.381737 85.264221 87.612984 89.961739 92.902977 98.785461 101.71612 104.06488 109.94736 115.23736 121.11984 123.4686"
               y="0"
               id="tspan3501"
               style="font-size:10.57999992px;font-variant:normal;font-weight:normal;writing-mode:lr-tb;fill:#000000;fill-opacity:1;fill-rule:nonzero;stroke:none;font-family:NimbusSansL;-inkscape-font-specification:NimbusSansL">GALNT2 ; Metabolite levels</tspan>
          </text>
        </g>
      </g>
      <g
         id="g3503" />
    </g>
  </g>
</svg>
