<svg version="1.1" xmlns="http://www.w3.org/2000/svg" xmlns:xlink="http://www.w3.org/1999/xlink" width="805" height="523"><defs></defs><g><g transform="translate(-190,-134) scale(1,1)"><rect fill="#C0C0C0" stroke="none" x="207" y="151" width="73" height="117" opacity="0.2"></rect></g><g transform="translate(-190,-134) scale(1,1)"><rect fill="#ffffff" stroke="none" x="200" y="144" width="73" height="117"></rect></g><g transform="translate(-190,-134) scale(1,1)"><path fill="none" stroke="#000000" d="M 200 144 L 273 144 L 273 261 L 200 261 L 200 144 Z Z" stroke-miterlimit="10"></path></g><g transform="translate(-190,-134) scale(1,1)"><path fill="none" stroke="#000000" d="M 200 169 L 273 169" stroke-miterlimit="10"></path></g><g transform="translate(-190,-134) scale(1,1)"><path fill="none" stroke="#000000" d="M 200 237 L 273 237" stroke-miterlimit="10"></path></g><g transform="translate(-190,-134) scale(1,1)"><g><path fill="none" stroke="none"></path><text fill="#000000" stroke="none" font-family="Arial" font-size="13px" font-style="normal" font-weight="bold" text-decoration="none" x="208.5" y="163.5">LD_Block</text></g></g><g transform="translate(-190,-134) scale(1,1)"><g><path fill="none" stroke="none"></path><text fill="#000000" stroke="none" font-family="Arial" font-size="13px" font-style="normal" font-weight="normal" text-decoration="none" x="205" y="186.5">+LD_id</text></g></g><g transform="translate(-190,-134) scale(1,1)"><g><path fill="none" stroke="none"></path><text fill="#000000" stroke="none" font-family="Arial" font-size="13px" font-style="normal" font-weight="normal" text-decoration="none" x="205" y="201.5">+chr</text></g></g><g transform="translate(-190,-134) scale(1,1)"><g><path fill="none" stroke="none"></path><text fill="#000000" stroke="none" font-family="Arial" font-size="13px" font-style="normal" font-weight="normal" text-decoration="none" x="205" y="216.5">+start</text></g></g><g transform="translate(-190,-134) scale(1,1)"><g><path fill="none" stroke="none"></path><text fill="#000000" stroke="none" font-family="Arial" font-size="13px" font-style="normal" font-weight="normal" text-decoration="none" x="205" y="231.5">+stop</text></g></g><g transform="translate(-190,-134) scale(1,1)"><rect fill="#C0C0C0" stroke="none" x="559" y="327" width="168" height="128" opacity="0.2"></rect></g><g transform="translate(-190,-134) scale(1,1)"><rect fill="#ffffff" stroke="none" x="552" y="320" width="168" height="128"></rect></g><g transform="translate(-190,-134) scale(1,1)"><path fill="none" stroke="#000000" d="M 552 320 L 720 320 L 720 448 L 552 448 L 552 320 Z Z" stroke-miterlimit="10"></path></g><g transform="translate(-190,-134) scale(1,1)"><path fill="none" stroke="#000000" d="M 552 345 L 720 345" stroke-miterlimit="10"></path></g><g transform="translate(-190,-134) scale(1,1)"><path fill="none" stroke="#000000" d="M 552 428 L 720 428" stroke-miterlimit="10"></path></g><g transform="translate(-190,-134) scale(1,1)"><g><path fill="none" stroke="none"></path><text fill="#000000" stroke="none" font-family="Arial" font-size="13px" font-style="normal" font-weight="bold" text-decoration="none" x="622.5" y="339.5">SNP</text></g></g><g transform="translate(-190,-134) scale(1,1)"><g><path fill="none" stroke="none"></path><text fill="#000000" stroke="none" font-family="Arial" font-size="13px" font-style="normal" font-weight="normal" text-decoration="none" x="557" y="362.5">+LD_id_FK</text></g></g><g transform="translate(-190,-134) scale(1,1)"><g><path fill="none" stroke="none"></path><text fill="#000000" stroke="none" font-family="Arial" font-size="13px" font-style="normal" font-weight="normal" text-decoration="none" x="557" y="377.5">+chr</text></g></g><g transform="translate(-190,-134) scale(1,1)"><g><path fill="none" stroke="none"></path><text fill="#000000" stroke="none" font-family="Arial" font-size="13px" font-style="normal" font-weight="normal" text-decoration="none" x="557" y="392.5">+start</text></g></g><g transform="translate(-190,-134) scale(1,1)"><g><path fill="none" stroke="none"></path><text fill="#000000" stroke="none" font-family="Arial" font-size="13px" font-style="normal" font-weight="normal" text-decoration="none" x="557" y="407.5">+stop</text></g></g><g transform="translate(-190,-134) scale(1,1)"><g><path fill="none" stroke="none"></path><text fill="#000000" stroke="none" font-family="Arial" font-size="13px" font-style="normal" font-weight="normal" text-decoration="none" x="557" y="422.5">+rs_ID</text></g></g><g transform="translate(-190,-134) scale(1,1)"><rect fill="#C0C0C0" stroke="none" x="487" y="567" width="87" height="87" opacity="0.2"></rect></g><g transform="translate(-190,-134) scale(1,1)"><rect fill="#ffffff" stroke="none" x="480" y="560" width="87" height="87"></rect></g><g transform="translate(-190,-134) scale(1,1)"><path fill="none" stroke="#000000" d="M 480 560 L 567 560 L 567 647 L 480 647 L 480 560 Z Z" stroke-miterlimit="10"></path></g><g transform="translate(-190,-134) scale(1,1)"><path fill="none" stroke="#000000" d="M 480 585 L 567 585" stroke-miterlimit="10"></path></g><g transform="translate(-190,-134) scale(1,1)"><path fill="none" stroke="#000000" d="M 480 638 L 567 638" stroke-miterlimit="10"></path></g><g transform="translate(-190,-134) scale(1,1)"><g><path fill="none" stroke="none"></path><text fill="#000000" stroke="none" font-family="Arial" font-size="13px" font-style="normal" font-weight="bold" text-decoration="none" x="488" y="579.5">GeneIDpairs</text></g></g><g transform="translate(-190,-134) scale(1,1)"><g><path fill="none" stroke="none"></path><text fill="#000000" stroke="none" font-family="Arial" font-size="13px" font-style="normal" font-weight="normal" text-decoration="none" x="485" y="602.5">+id</text></g></g><g transform="translate(-190,-134) scale(1,1)"><g><path fill="none" stroke="none"></path><text fill="#000000" stroke="none" font-family="Arial" font-size="13px" font-style="normal" font-weight="normal" text-decoration="none" x="485" y="617.5">+gene</text></g></g><g transform="translate(-190,-134) scale(1,1)"><g><path fill="none" stroke="none"></path><text fill="#000000" stroke="none" font-family="Arial" font-size="13px" font-style="normal" font-weight="normal" text-decoration="none" x="485" y="632.5">+rs_ID</text></g></g><g transform="translate(-190,-134) scale(1,1)"><rect fill="#C0C0C0" stroke="none" x="871" y="431" width="121" height="87" opacity="0.2"></rect></g><g transform="translate(-190,-134) scale(1,1)"><rect fill="#ffffff" stroke="none" x="864" y="424" width="121" height="87"></rect></g><g transform="translate(-190,-134) scale(1,1)"><path fill="none" stroke="#000000" d="M 864 424 L 985 424 L 985 511 L 864 511 L 864 424 Z Z" stroke-miterlimit="10"></path></g><g transform="translate(-190,-134) scale(1,1)"><path fill="none" stroke="#000000" d="M 864 449 L 985 449" stroke-miterlimit="10"></path></g><g transform="translate(-190,-134) scale(1,1)"><path fill="none" stroke="#000000" d="M 864 502 L 985 502" stroke-miterlimit="10"></path></g><g transform="translate(-190,-134) scale(1,1)"><g><path fill="none" stroke="none"></path><text fill="#000000" stroke="none" font-family="Arial" font-size="13px" font-style="normal" font-weight="bold" text-decoration="none" x="874.5" y="443.5">annotationIDpairs</text></g></g><g transform="translate(-190,-134) scale(1,1)"><g><path fill="none" stroke="none"></path><text fill="#000000" stroke="none" font-family="Arial" font-size="13px" font-style="normal" font-weight="normal" text-decoration="none" x="869" y="466.5">+id</text></g></g><g transform="translate(-190,-134) scale(1,1)"><g><path fill="none" stroke="none"></path><text fill="#000000" stroke="none" font-family="Arial" font-size="13px" font-style="normal" font-weight="normal" text-decoration="none" x="869" y="481.5">+annotation</text></g></g><g transform="translate(-190,-134) scale(1,1)"><g><path fill="none" stroke="none"></path><text fill="#000000" stroke="none" font-family="Arial" font-size="13px" font-style="normal" font-weight="normal" text-decoration="none" x="869" y="496.5">+rs_ID</text></g></g><g transform="translate(-190,-134) scale(1,1)"><path fill="none" stroke="#000000" d="M 274 219 L 551 345" stroke-miterlimit="10"></path></g><g transform="translate(-190,-134) scale(1,1)"><g><path fill="none" stroke="none"></path><text fill="#000000" stroke="none" font-family="Arial" font-size="13px" font-style="normal" font-weight="normal" text-decoration="none" x="285" y="245.5">*</text></g></g><g transform="translate(-190,-134) scale(1,1)"><g><path fill="none" stroke="none"></path><text fill="#000000" stroke="none" font-family="Arial" font-size="13px" font-style="normal" font-weight="normal" text-decoration="none" x="518" y="353.5">*</text></g></g><g transform="translate(-190,-134) scale(1,1)"><path fill="none" stroke="#000000" d="M 602 449 L 546 559" stroke-miterlimit="10"></path></g><g transform="translate(-190,-134) scale(1,1)"><g><path fill="none" stroke="none"></path><text fill="#000000" stroke="none" font-family="Arial" font-size="13px" font-style="normal" font-weight="normal" text-decoration="none" x="578.5" y="468.5">*</text></g></g><g transform="translate(-190,-134) scale(1,1)"><g><path fill="none" stroke="none"></path><text fill="#000000" stroke="none" font-family="Arial" font-size="13px" font-style="normal" font-weight="normal" text-decoration="none" x="541.5" y="540.5">*</text></g></g><g transform="translate(-190,-134) scale(1,1)"><path fill="none" stroke="#000000" d="M 721 408 L 863 449" stroke-miterlimit="10"></path></g><g transform="translate(-190,-134) scale(1,1)"><g><path fill="none" stroke="none"></path><text fill="#000000" stroke="none" font-family="Arial" font-size="13px" font-style="normal" font-weight="normal" text-decoration="none" x="735.5" y="432.5">*</text></g></g><g transform="translate(-190,-134) scale(1,1)"><g><path fill="none" stroke="none"></path><text fill="#000000" stroke="none" font-family="Arial" font-size="13px" font-style="normal" font-weight="normal" text-decoration="none" x="835.5" y="461.5">*</text></g></g><g transform="translate(-190,-134) scale(1,1)"><rect fill="#C0C0C0" stroke="none" x="303" y="327" width="103" height="72" opacity="0.2"></rect></g><g transform="translate(-190,-134) scale(1,1)"><rect fill="#ffffff" stroke="none" x="296" y="320" width="103" height="72"></rect></g><g transform="translate(-190,-134) scale(1,1)"><path fill="none" stroke="#000000" d="M 296 320 L 399 320 L 399 392 L 296 392 L 296 320 Z Z" stroke-miterlimit="10"></path></g><g transform="translate(-190,-134) scale(1,1)"><path fill="none" stroke="#000000" d="M 296 345 L 399 345" stroke-miterlimit="10"></path></g><g transform="translate(-190,-134) scale(1,1)"><path fill="none" stroke="#000000" d="M 296 383 L 399 383" stroke-miterlimit="10"></path></g><g transform="translate(-190,-134) scale(1,1)"><g><path fill="none" stroke="none"></path><text fill="#000000" stroke="none" font-family="Arial" font-size="13px" font-style="normal" font-weight="bold" text-decoration="none" x="303.5" y="339.5">LD_idSNPpairs</text></g></g><g transform="translate(-190,-134) scale(1,1)"><g><path fill="none" stroke="none"></path><text fill="#000000" stroke="none" font-family="Arial" font-size="13px" font-style="normal" font-weight="normal" text-decoration="none" x="301" y="362.5">+LD_id</text></g></g><g transform="translate(-190,-134) scale(1,1)"><g><path fill="none" stroke="none"></path><text fill="#000000" stroke="none" font-family="Arial" font-size="13px" font-style="normal" font-weight="normal" text-decoration="none" x="301" y="377.5">+rs_ID</text></g></g><g transform="translate(-190,-134) scale(1,1)"><rect fill="#C0C0C0" stroke="none" x="823" y="199" width="96" height="102" opacity="0.2"></rect></g><g transform="translate(-190,-134) scale(1,1)"><rect fill="#ffffff" stroke="none" x="816" y="192" width="96" height="102"></rect></g><g transform="translate(-190,-134) scale(1,1)"><path fill="none" stroke="#000000" d="M 816 192 L 912 192 L 912 294 L 816 294 L 816 192 Z Z" stroke-miterlimit="10"></path></g><g transform="translate(-190,-134) scale(1,1)"><path fill="none" stroke="#000000" d="M 816 217 L 912 217" stroke-miterlimit="10"></path></g><g transform="translate(-190,-134) scale(1,1)"><path fill="none" stroke="#000000" d="M 816 285 L 912 285" stroke-miterlimit="10"></path></g><g transform="translate(-190,-134) scale(1,1)"><g><path fill="none" stroke="none"></path><text fill="#000000" stroke="none" font-family="Arial" font-size="13px" font-style="normal" font-weight="bold" text-decoration="none" x="852.5" y="211.5">files</text></g></g><g transform="translate(-190,-134) scale(1,1)"><g><path fill="none" stroke="none"></path><text fill="#000000" stroke="none" font-family="Arial" font-size="13px" font-style="normal" font-weight="normal" text-decoration="none" x="821" y="234.5">+pValFilename</text></g></g><g transform="translate(-190,-134) scale(1,1)"><g><path fill="none" stroke="none"></path><text fill="#000000" stroke="none" font-family="Arial" font-size="13px" font-style="normal" font-weight="normal" text-decoration="none" x="821" y="249.5">+dataFilename</text></g></g><g transform="translate(-190,-134) scale(1,1)"><g><path fill="none" stroke="none"></path><text fill="#000000" stroke="none" font-family="Arial" font-size="13px" font-style="normal" font-weight="normal" text-decoration="none" x="821" y="264.5">+rs_ID</text></g></g><g transform="translate(-190,-134) scale(1,1)"><g><path fill="none" stroke="none"></path><text fill="#000000" stroke="none" font-family="Arial" font-size="13px" font-style="normal" font-weight="normal" text-decoration="none" x="821" y="279.5">+id</text></g></g><g transform="translate(-190,-134) scale(1,1)"><path fill="none" stroke="#000000" d="M 721 331 L 815 273" stroke-miterlimit="10"></path></g><g transform="translate(-190,-134) scale(1,1)"><g><path fill="none" stroke="none"></path><text fill="#000000" stroke="none" font-family="Arial" font-size="13px" font-style="normal" font-weight="normal" text-decoration="none" x="734.5" y="336.5">1..*</text></g></g><g transform="translate(-190,-134) scale(1,1)"><g><path fill="none" stroke="none"></path><text fill="#000000" stroke="none" font-family="Arial" font-size="13px" font-style="normal" font-weight="normal" text-decoration="none" x="792.5" y="301.5">1..*</text></g></g><g transform="translate(-190,-134) scale(1,1)"><path fill="none" stroke="#000000" d="M 551 376 L 400 361" stroke-miterlimit="10"></path></g><g transform="translate(-190,-134) scale(1,1)"><path fill="none" stroke="#000000" d="M 274 255 L 320 319" stroke-miterlimit="10"></path></g></g></svg>