<?xml version="1.0" encoding="UTF-8" standalone="no"?>
<svg
   xmlns:dc="http://purl.org/dc/elements/1.1/"
   xmlns:cc="http://creativecommons.org/ns#"
   xmlns:rdf="http://www.w3.org/1999/02/22-rdf-syntax-ns#"
   xmlns:svg="http://www.w3.org/2000/svg"
   xmlns="http://www.w3.org/2000/svg"
   viewBox="0 0 540 540"
   height="540"
   width="540"
   xml:space="preserve"
   version="1.1"
   id="svg2"><metadata
     id="metadata8"><rdf:RDF><cc:Work
         rdf:about=""><dc:format>image/svg+xml</dc:format><dc:type
           rdf:resource="http://purl.org/dc/dcmitype/StillImage" /><dc:title></dc:title></cc:Work></rdf:RDF></metadata><defs
     id="defs6"><clipPath
       id="clipPath20"
       clipPathUnits="userSpaceOnUse"><path
         id="path22"
         d="m 59.039,372.961 343.719,0 0,-300.52 -343.719,0 0,300.52 z" /></clipPath><clipPath
       id="clipPath70"
       clipPathUnits="userSpaceOnUse"><path
         id="path72"
         d="M 0,432 433,432 433,-1 0,-1 0,432 Z" /></clipPath><clipPath
       id="clipPath106"
       clipPathUnits="userSpaceOnUse"><path
         id="path108"
         d="M 0,432 433,432 433,-1 0,-1 0,432 Z" /></clipPath><clipPath
       id="clipPath128"
       clipPathUnits="userSpaceOnUse"><path
         id="path130"
         d="M 0,432 433,432 433,-1 0,-1 0,432 Z" /></clipPath></defs><g
     transform="matrix(1.25,0,0,-1.25,0,540)"
     id="g10"><g
       id="g12"><path
         id="path14"
         style="fill:#ffffff;fill-opacity:1;fill-rule:nonzero;stroke:none"
         d="M 0,0 432,0 432,432 0,432 0,0 Z" /></g><g
       id="g16"><g
         clip-path="url(#clipPath20)"
         id="g18"><path
           id="path24"
           style="fill:#63b8ff;fill-opacity:1;fill-rule:nonzero;stroke:none"
           d="m 82.312,188.535 84.622,0 0,32.32 -21.157,2.372 21.157,2.371 0,32.297 -84.622,0 0,-32.297 21.153,-2.371 -21.153,-2.372 0,-32.32 z" /><path
           id="path26"
           style="fill:none;stroke:#000000;stroke-width:3;stroke-linecap:butt;stroke-linejoin:round;stroke-miterlimit:10;stroke-dasharray:none;stroke-opacity:1"
           d="m 103.465,223.227 42.312,0" /><path
           id="path28"
           style="fill:none;stroke:#000000;stroke-width:1;stroke-linecap:round;stroke-linejoin:round;stroke-miterlimit:10;stroke-dasharray:4, 4;stroke-dashoffset:0;stroke-opacity:1"
           d="m 124.621,84.535 0,104" /><path
           id="path30"
           style="fill:none;stroke:#000000;stroke-width:1;stroke-linecap:round;stroke-linejoin:round;stroke-miterlimit:10;stroke-dasharray:4, 4;stroke-dashoffset:0;stroke-opacity:1"
           d="m 124.621,361.867 0,-103.972" /><path
           id="path32"
           style="fill:none;stroke:#000000;stroke-width:1;stroke-linecap:round;stroke-linejoin:round;stroke-miterlimit:10;stroke-dasharray:none;stroke-opacity:1"
           d="m 103.465,84.535 42.312,0" /><path
           id="path34"
           style="fill:none;stroke:#000000;stroke-width:1;stroke-linecap:round;stroke-linejoin:round;stroke-miterlimit:10;stroke-dasharray:none;stroke-opacity:1"
           d="m 103.465,361.867 42.312,0" /><path
           id="path36"
           style="fill:none;stroke:#000000;stroke-width:1;stroke-linecap:round;stroke-linejoin:round;stroke-miterlimit:10;stroke-dasharray:none;stroke-opacity:1"
           d="m 82.312,188.535 84.622,0 0,32.32 -21.157,2.372 21.157,2.371 0,32.297 -84.622,0 0,-32.297 21.153,-2.371 -21.153,-2.372 0,-32.32" /><path
           id="path38"
           style="fill:#90ee90;fill-opacity:1;fill-rule:nonzero;stroke:none"
           d="m 188.09,221.203 84.621,0 0,18.531 -21.156,11.883 21.156,11.887 0,19.734 -84.621,0 0,-19.734 21.156,-11.887 -21.156,-11.883 0,-18.531 z" /><path
           id="path40"
           style="fill:none;stroke:#000000;stroke-width:3;stroke-linecap:butt;stroke-linejoin:round;stroke-miterlimit:10;stroke-dasharray:none;stroke-opacity:1"
           d="m 209.246,251.617 42.309,0" /><path
           id="path42"
           style="fill:none;stroke:#000000;stroke-width:1;stroke-linecap:round;stroke-linejoin:round;stroke-miterlimit:10;stroke-dasharray:4, 4;stroke-dashoffset:0;stroke-opacity:1"
           d="m 230.398,143.406 0,77.797" /><path
           id="path44"
           style="fill:none;stroke:#000000;stroke-width:1;stroke-linecap:round;stroke-linejoin:round;stroke-miterlimit:10;stroke-dasharray:4, 4;stroke-dashoffset:0;stroke-opacity:1"
           d="m 230.398,353.633 0,-70.395" /><path
           id="path46"
           style="fill:none;stroke:#000000;stroke-width:1;stroke-linecap:round;stroke-linejoin:round;stroke-miterlimit:10;stroke-dasharray:none;stroke-opacity:1"
           d="m 209.246,143.406 42.309,0" /><path
           id="path48"
           style="fill:none;stroke:#000000;stroke-width:1;stroke-linecap:round;stroke-linejoin:round;stroke-miterlimit:10;stroke-dasharray:none;stroke-opacity:1"
           d="m 209.246,353.633 42.309,0" /><path
           id="path50"
           style="fill:none;stroke:#000000;stroke-width:1;stroke-linecap:round;stroke-linejoin:round;stroke-miterlimit:10;stroke-dasharray:none;stroke-opacity:1"
           d="m 188.09,221.203 84.621,0 0,18.531 -21.156,11.883 21.156,11.887 0,19.734 -84.621,0 0,-19.734 21.156,-11.887 -21.156,-11.883 0,-18.531" /><path
           id="path52"
           style="fill:#ff8247;fill-opacity:1;fill-rule:nonzero;stroke:none"
           d="m 293.867,236.965 84.621,0 0,-2.461 -21.156,27.578 21.156,27.582 0,-9.941 -84.621,0 0,9.941 21.156,-27.582 -21.156,-27.578 0,2.461 z" /><path
           id="path54"
           style="fill:none;stroke:#000000;stroke-width:3;stroke-linecap:butt;stroke-linejoin:round;stroke-miterlimit:10;stroke-dasharray:none;stroke-opacity:1"
           d="m 315.023,262.082 42.309,0" /><path
           id="path56"
           style="fill:none;stroke:#000000;stroke-width:1;stroke-linecap:round;stroke-linejoin:round;stroke-miterlimit:10;stroke-dasharray:4, 4;stroke-dashoffset:0;stroke-opacity:1"
           d="m 336.18,212.918 0,24.047" /><path
           id="path58"
           style="fill:none;stroke:#000000;stroke-width:1;stroke-linecap:round;stroke-linejoin:round;stroke-miterlimit:10;stroke-dasharray:4, 4;stroke-dashoffset:0;stroke-opacity:1"
           d="m 336.18,292.137 0,-12.414" /><path
           id="path60"
           style="fill:none;stroke:#000000;stroke-width:1;stroke-linecap:round;stroke-linejoin:round;stroke-miterlimit:10;stroke-dasharray:none;stroke-opacity:1"
           d="m 315.023,212.918 42.309,0" /><path
           id="path62"
           style="fill:none;stroke:#000000;stroke-width:1;stroke-linecap:round;stroke-linejoin:round;stroke-miterlimit:10;stroke-dasharray:none;stroke-opacity:1"
           d="m 315.023,292.137 42.309,0" /><path
           id="path64"
           style="fill:none;stroke:#000000;stroke-width:1;stroke-linecap:round;stroke-linejoin:round;stroke-miterlimit:10;stroke-dasharray:none;stroke-opacity:1"
           d="m 293.867,236.965 84.621,0 0,-2.461 -21.156,27.578 21.156,27.582 0,-9.941 -84.621,0 0,9.941 21.156,-27.582 -21.156,-27.578 0,2.461" /></g></g><g
       id="g66"><g
         clip-path="url(#clipPath70)"
         id="g68"><path
           id="path74"
           style="fill:none;stroke:#000000;stroke-width:1;stroke-linecap:round;stroke-linejoin:round;stroke-miterlimit:10;stroke-dasharray:none;stroke-opacity:1"
           d="m 124.621,73.441 211.559,0" /><path
           id="path76"
           style="fill:none;stroke:#000000;stroke-width:1;stroke-linecap:round;stroke-linejoin:round;stroke-miterlimit:10;stroke-dasharray:none;stroke-opacity:1"
           d="m 124.621,73.441 0,-7.203" /><path
           id="path78"
           style="fill:none;stroke:#000000;stroke-width:1;stroke-linecap:round;stroke-linejoin:round;stroke-miterlimit:10;stroke-dasharray:none;stroke-opacity:1"
           d="m 230.398,73.441 0,-7.203" /><path
           id="path80"
           style="fill:none;stroke:#000000;stroke-width:1;stroke-linecap:round;stroke-linejoin:round;stroke-miterlimit:10;stroke-dasharray:none;stroke-opacity:1"
           d="m 336.18,73.441 0,-7.203" /><text
           id="text82"
           style="font-variant:normal;font-weight:normal;font-size:12.5px;font-family:'Nimbus Sans L';-inkscape-font-specification:NimbusSansL;writing-mode:lr-tb;fill:#000000;fill-opacity:1;fill-rule:nonzero;stroke:none"
           transform="matrix(1,0,0,-1,117.67187,46.078125)"><tspan
             id="tspan84"
             y="0"
             x="0 6.9499998 105.775 112.725 211.55859 218.50861">111222</tspan></text>
<path
           id="path86"
           style="fill:none;stroke:#000000;stroke-width:1;stroke-linecap:round;stroke-linejoin:round;stroke-miterlimit:10;stroke-dasharray:none;stroke-opacity:1"
           d="m 59.039,121.035 0,206.488" /><path
           id="path88"
           style="fill:none;stroke:#000000;stroke-width:1;stroke-linecap:round;stroke-linejoin:round;stroke-miterlimit:10;stroke-dasharray:none;stroke-opacity:1"
           d="m 59.039,121.035 -7.199,0" /><path
           id="path90"
           style="fill:none;stroke:#000000;stroke-width:1;stroke-linecap:round;stroke-linejoin:round;stroke-miterlimit:10;stroke-dasharray:none;stroke-opacity:1"
           d="m 59.039,172.656 -7.199,0" /><path
           id="path92"
           style="fill:none;stroke:#000000;stroke-width:1;stroke-linecap:round;stroke-linejoin:round;stroke-miterlimit:10;stroke-dasharray:none;stroke-opacity:1"
           d="m 59.039,224.281 -7.199,0" /><path
           id="path94"
           style="fill:none;stroke:#000000;stroke-width:1;stroke-linecap:round;stroke-linejoin:round;stroke-miterlimit:10;stroke-dasharray:none;stroke-opacity:1"
           d="m 59.039,275.902 -7.199,0" /><path
           id="path96"
           style="fill:none;stroke:#000000;stroke-width:1;stroke-linecap:round;stroke-linejoin:round;stroke-miterlimit:10;stroke-dasharray:none;stroke-opacity:1"
           d="m 59.039,327.523 -7.199,0" /><text
           id="text98"
           style="font-variant:normal;font-weight:normal;font-size:12.5px;font-family:'Nimbus Sans L';-inkscape-font-specification:NimbusSansL;writing-mode:lr-tb;fill:#000000;fill-opacity:1;fill-rule:nonzero;stroke:none"
           transform="matrix(0,1,1,0,43.199219,115.48047)"><tspan
             id="tspan100"
             y="0"
             x="0 4.1624999 51.625 55.787498 105.325 156.94531 208.57031">-2-1012</tspan></text>
</g></g><g
       id="g102"><g
         clip-path="url(#clipPath106)"
         id="g104"><text
           id="text110"
           style="font-variant:normal;font-weight:normal;font-size:14.89999962px;font-family:'Nimbus Sans L';-inkscape-font-specification:NimbusSansL;writing-mode:lr-tb;fill:#000000;fill-opacity:1;fill-rule:nonzero;stroke:none"
           transform="matrix(1,0,0,-1,121.07031,405.69141)"><tspan
             id="tspan112"
             y="0"
             x="0 9.1039 17.3883 21.5305 26.492201 30.6493 40.587601 48.886902 57.990799 67.094704 76.198601 84.483002 88.640099 93.601799 102.7057 108.5167 117.6206 130.8667 139.9855 149.0894 157.37379 170.6348 179.73869 188.84261 192.9848 197.127 205.4263">F5 ; Venous thromboembolism</tspan><tspan
             id="tspan114"
             y="17.281244"
             x="11.96093 16.10313 24.387529 33.506329 39.302429 47.58683 52.548531 60.847832 69.132233 77.416634 85.701027 94.000328 102.28473 110.56913 118.86843 127.15283 132.11453 140.39893 148.69823 156.98264 165.25594 173.54033 181.83963 190.12402 198.40843"> chr1:169275750-169276250</tspan></text>
<text
           id="text116"
           style="font-variant:normal;font-weight:normal;font-size:12.5px;font-family:'Nimbus Sans L';-inkscape-font-specification:NimbusSansL;writing-mode:lr-tb;fill:#000000;fill-opacity:1;fill-rule:nonzero;stroke:none"
           transform="matrix(1,0,0,-1,182.45312,17.28125)"><tspan
             id="tspan118"
             y="0"
             x="0 4.1624999 10.4125 17.362499 24.3125 31.262501 38.212502 41.6875 51.412498 58.362499 65.3125 72.262497 75.737503 81.987503 88.9375">rs6025 Genotype</tspan></text>
<text
           id="text120"
           style="font-variant:normal;font-weight:normal;font-size:12.5px;font-family:'Nimbus Sans L';-inkscape-font-specification:NimbusSansL;writing-mode:lr-tb;fill:#000000;fill-opacity:1;fill-rule:nonzero;stroke:none"
           transform="matrix(0,1,1,0,14.398438,196.11328)"><tspan
             id="tspan122"
             y="0"
             x="0 6.9499998 13.9 22.924999 26.4 35.424999 43.762501">qqN RPM</tspan></text>
</g></g><g
       id="g124"><g
         clip-path="url(#clipPath128)"
         id="g126"><path
           id="path132"
           style="fill:none;stroke:#000000;stroke-width:1;stroke-linecap:round;stroke-linejoin:round;stroke-miterlimit:10;stroke-dasharray:none;stroke-opacity:1"
           d="m 59.039,73.441 342.723,0 0,299.52 -342.723,0 0,-299.52 z" /></g></g><g
       id="g134" /></g></svg>